<?xml version="1.0" encoding="UTF-8"?>
<svg version="1.1" xmlns="http://www.w3.org/2000/svg" width="1024" height="1024">
<path d="M0 0 C0.96808594 0.14453613 1.93617188 0.28907227 2.93359375 0.43798828 C33.17799153 4.97163556 62.43200306 13.76543993 90 27 C91.35266833 27.63062946 92.70552421 28.26085684 94.05859375 28.890625 C120.57752334 41.46514183 144.47802718 59.19540023 166 79 C167.72829011 80.54264927 169.45746434 82.08430857 171.1875 83.625 C177.93207672 89.70565745 184.14367563 96.06117574 190 103 C190.43521973 103.50547363 190.87043945 104.01094727 191.31884766 104.53173828 C201.67205432 116.59944434 210.45219681 129.61000721 219 143 C219.48597656 143.75893555 219.97195313 144.51787109 220.47265625 145.29980469 C263.07763965 212.6093195 273.03582736 294.58379907 256.21386719 371.59912109 C245.19001327 419.00169292 223.56444838 463.95565387 192.30224609 501.4375 C190.97476559 503.03027751 189.66932021 504.63961802 188.36328125 506.25 C176.42434118 520.75649955 162.9617014 534.61012381 148 546 C146.47838455 547.24904781 144.95757515 548.49907812 143.4375 549.75 C138.72141795 553.50777418 133.87497798 557.07755386 129 560.625 C128.26450928 561.16350586 127.52901855 561.70201172 126.77124023 562.25683594 C76.0987519 598.84274218 13.50293586 615.27070758 -48.375 615.1875 C-49.20937592 615.18689575 -50.04375183 615.1862915 -50.90341187 615.18566895 C-64.68442989 615.15868766 -78.31218296 614.72206985 -92 613 C-92.9595459 612.88172852 -93.9190918 612.76345703 -94.90771484 612.64160156 C-126.84152115 608.52752653 -157.88363054 599.70972326 -187 586 C-188.14210938 585.47019531 -189.28421875 584.94039062 -190.4609375 584.39453125 C-215.84617415 572.18429272 -238.89323923 556.05844536 -259.671875 537.109375 C-261.73153033 535.24324433 -263.82388895 533.42930212 -265.9375 531.625 C-273.87240688 524.70203468 -281.26859549 517.09355513 -288 509 C-288.45068848 508.46310547 -288.90137695 507.92621094 -289.36572266 507.37304688 C-306.65412924 486.72193202 -321.68739641 464.49907402 -333 440 C-333.59143799 438.72648682 -333.59143799 438.72648682 -334.19482422 437.42724609 C-367.00514295 366.14269739 -368.71514024 286.24970592 -345 212 C-344.73638672 211.15743652 -344.47277344 210.31487305 -344.20117188 209.44677734 C-333.56279275 175.77857374 -315.92362955 144.56417501 -294 117 C-293.30648437 116.11183594 -292.61296875 115.22367187 -291.8984375 114.30859375 C-285.09252866 105.75659968 -277.5677496 97.87382036 -270 90 C-269.44844238 89.42507813 -268.89688477 88.85015625 -268.32861328 88.2578125 C-262.52915768 82.24436148 -256.57163036 76.58818452 -250.01171875 71.39453125 C-247.79277563 69.63031318 -245.61839251 67.84376274 -243.45703125 66.01171875 C-229.08524142 53.91466673 -213.38769837 43.93375849 -196.875 35.01757812 C-195.0219875 34.0119328 -193.18233648 32.98486398 -191.34375 31.953125 C-181.54843318 26.51463294 -171.40507499 22.13418751 -161 18 C-160.2476709 17.69707031 -159.4953418 17.39414063 -158.72021484 17.08203125 C-138.27875907 8.91792683 -116.74285294 3.35221715 -95 0 C-93.58750977 -0.22429687 -93.58750977 -0.22429687 -92.14648438 -0.453125 C-61.96317809 -5.05097599 -30.12983879 -4.81440296 0 0 Z M-83.375 273.3125 C-89.53871984 280.76922014 -92.56134624 289.23067422 -95.67578125 298.2890625 C-96.80905448 301.46490192 -98.03420333 304.55863666 -99.33569336 307.66625977 C-107.7471341 327.87401114 -108.73096859 347.80465518 -100.625 368.3125 C-97.38523397 375.6650229 -93.85720658 381.45106745 -88 387 C-87.46375 387.763125 -86.9275 388.52625 -86.375 389.3125 C-85.92125 389.869375 -85.4675 390.42625 -85 391 C-84.01 391 -83.02 391 -82 391 C-81.77828125 391.5878125 -81.5565625 392.175625 -81.328125 392.78125 C-77.04848912 399.93075935 -65.71057571 403.36940503 -58.04296875 405.34375 C-41.2832152 408.51416867 -24.37298446 406.28680986 -10 397 C4.21431928 386.48709822 10.56167331 370.64494076 13.58984375 353.69921875 C15.98983709 332.0535645 13.02116488 311.49344088 -0.76708984 293.90527344 C-4.50557608 289.30861226 -7.576744 286.46580399 -13 284 C-14.01801357 283.01834406 -15.0246803 282.02408568 -16 281 C-16.66 281 -17.32 281 -18 281 C-20.3530531 274.63291514 -20.83222686 268.02679709 -17.953125 261.69921875 C-17.48132813 260.85810547 -17.48132813 260.85810547 -17 260 C-40.01781666 251.19425163 -65.76981847 254.61935781 -83.375 273.3125 Z " fill="#070D14" transform="translate(558,216)"/>
<path d="M0 0 C7.26321338 5.88108733 12.24980354 13.77169141 14 23 C15.02547231 32.92341669 12.99701676 42.34000529 7 50.4375 C6.01327295 51.63605161 5.01241545 52.82306704 4 54 C3.37996094 54.82757813 2.75992187 55.65515625 2.12109375 56.5078125 C-7.49555849 67.80693613 -25.14045756 72.48001194 -38.62280273 77.46777344 C-52.18944383 82.51376719 -65.90390412 87.619412 -78.234375 95.296875 C-80.56563348 96.73250875 -82.91171939 98.0501704 -85.31640625 99.35546875 C-89.80429435 101.8352991 -94.01048265 104.59331871 -98.1875 107.5625 C-98.9187207 108.08134766 -99.64994141 108.60019531 -100.40332031 109.13476562 C-107.64253737 114.34649896 -114.37299274 120.03860431 -121 126 C-121.55671387 126.495 -122.11342773 126.99 -122.68701172 127.5 C-142.3990545 145.05737762 -156.98221529 165.10119003 -170 188 C-170.42297363 188.74137207 -170.84594727 189.48274414 -171.28173828 190.24658203 C-185.22389455 214.92804205 -193.20429808 242.29984779 -196.421875 270.40625 C-196.97005808 275.12139116 -198.0048214 279.60985721 -199.27050781 284.18334961 C-202.41044231 296.30698557 -203.051903 309.00526564 -204.17456055 321.43774414 C-207.2441767 355.1782835 -207.2441767 355.1782835 -214.6875 364 C-218.47890157 365.639525 -221.95112806 365.71994623 -226 365 C-228.97638037 363.71597475 -231.660388 362.26311243 -234 360 C-234 359.01 -234 358.02 -234 357 C-234.99 356.67 -235.98 356.34 -237 356 C-237.69658363 354.34561387 -238.36096883 352.67745682 -239 351 C-239.98095748 349.98131338 -240.97702078 348.97648017 -242 348 C-242 347.34 -242 346.68 -242 346 C-242.66 346 -243.32 346 -244 346 C-257.15299233 320.66431805 -261.57255497 293.91606351 -261.39111328 265.54370117 C-261.37502475 262.5670785 -261.3910803 259.59181663 -261.41015625 256.61523438 C-261.42533852 243.19500891 -260.21426279 230.23111647 -258 217 C-257.88597839 216.31658539 -257.77195679 215.63317078 -257.65447998 214.92904663 C-257.00616308 211.12500809 -256.27353099 207.34282079 -255.5 203.5625 C-255.30019531 202.52802734 -255.10039062 201.49355469 -254.89453125 200.42773438 C-253.78753156 194.9244652 -252.3498483 190.12530688 -250 185 C-249.21561283 182.78480635 -248.48762202 180.5549898 -247.75927734 178.32080078 C-243.72242599 165.98179468 -238.99919475 154.16873784 -232.90380859 142.70166016 C-232.11606365 141.2185207 -231.34736581 139.72529575 -230.58203125 138.23046875 C-218.74010887 115.62316239 -203.20373615 93.3272829 -184.65625 75.68359375 C-182.91097162 73.99530099 -182.91097162 73.99530099 -181.40625 71.78515625 C-180.9421875 71.19605469 -180.478125 70.60695313 -180 70 C-179.34 70 -178.68 70 -178 70 C-178 69.34 -178 68.68 -178 68 C-176.63671875 66.625 -176.63671875 66.625 -174.6875 65 C-171.33697623 62.15997635 -168.09076071 59.24184848 -164.875 56.25 C-147.69237041 40.64656956 -128.29138921 28.17076038 -108 17 C-107.34918457 16.6395459 -106.69836914 16.2790918 -106.02783203 15.90771484 C-77.00612266 0.04251372 -30.31123073 -21.36363692 0 0 Z " fill="#70DD93" transform="translate(490,258)"/>
<path d="M0 0 C1.35920115 0.38288284 2.71993327 0.76036635 4.08203125 1.1328125 C41.44939996 11.46542327 78.70322275 29.80947946 107.98828125 55.390625 C110.76995128 57.80068412 113.6136118 60.09254584 116.5 62.375 C125.88103072 70.03298426 134.25637699 78.70825023 141.76171875 88.203125 C143.35660148 90.19603257 144.96453471 92.12929708 146.64453125 94.046875 C182.72703925 135.284027 205.16011031 194.0605169 205.1875 248.8125 C205.19974609 250.08931641 205.21199219 251.36613281 205.22460938 252.68164062 C205.24392277 265.33191132 205.17521817 279.32551218 196.03515625 289.1015625 C190.18708028 294.39423461 186.16503934 296.34933074 178.1875 296.3125 C177.50107422 296.32861328 176.81464844 296.34472656 176.10742188 296.36132812 C167.73768428 296.36924651 161.03184207 292.60011513 155 287 C146.61740147 277.2303528 142.80317267 263.78718095 138.53540039 251.83642578 C129.90919345 227.84039735 116.24550822 205.61420352 98.38330078 187.41845703 C97.10789793 186.11064013 95.86293818 184.77331755 94.62109375 183.43359375 C87.21123067 175.62251981 78.65012725 169.35290661 70 163 C69.36980957 162.53529297 68.73961914 162.07058594 68.09033203 161.59179688 C61.84134957 157.00098368 55.49631357 152.63582969 48.9375 148.5 C30.91922383 137.08967897 14.80552148 122.38899871 0.9296875 106.22265625 C-7.17102889 96.89207401 -15.61972286 88.21715654 -25.08203125 80.24609375 C-41.38398417 66.38782608 -53.45547248 48.88604867 -56.3515625 27.390625 C-56.67540437 19.08849717 -54.04103019 11.2459027 -48.8046875 4.82421875 C-35.62284033 -8.5002891 -16.27468588 -5.11824654 0 0 Z " fill="#39AACB" transform="translate(585,254)"/>
<path d="M0 0 C5.23182343 3.70509915 8.98806824 8.15629295 10.1953125 14.5546875 C10.69724198 22.6300048 9.87111151 29.56695359 7.3828125 37.2421875 C6.9202002 38.70760986 6.9202002 38.70760986 6.44824219 40.20263672 C-1.437574 64.28458849 -12.93044263 88.11486224 -27.58398438 108.82373047 C-28.80612006 110.55671887 -30.00219623 112.30553298 -31.1953125 114.05859375 C-37.43185461 123.12268849 -44.45333525 131.3802888 -51.8046875 139.5546875 C-52.30709961 140.11494629 -52.80951172 140.67520508 -53.32714844 141.25244141 C-61.40745894 150.23742455 -69.53979385 158.73027258 -78.98828125 166.2890625 C-80.75337199 167.70896906 -82.4992092 169.15352955 -84.21484375 170.6328125 C-108.14582938 191.11257833 -137.83778233 207.04734729 -167.8046875 216.5546875 C-168.78405273 216.87663086 -168.78405273 216.87663086 -169.78320312 217.20507812 C-179.03317348 220.23350561 -188.39444522 222.42515621 -197.9296875 224.3671875 C-198.99703125 224.58640869 -200.064375 224.80562988 -201.1640625 225.03149414 C-210.54830819 226.87196448 -217.71123612 226.66492415 -226.8671875 223.9921875 C-227.79023682 223.7240625 -228.71328613 223.4559375 -229.66430664 223.1796875 C-239.7439399 220.13307074 -251.40196877 216.40550457 -257.8046875 207.5546875 C-258.5546875 204.4921875 -258.5546875 204.4921875 -257.8046875 201.5546875 C-253.32065107 197.10526499 -248.98051389 195.19879173 -243.03125 193.28515625 C-242.18984467 193.00045975 -241.34843933 192.71576324 -240.48153687 192.42243958 C-237.80162928 191.51637676 -235.1165468 190.62740434 -232.4296875 189.7421875 C-219.66573533 185.52935633 -207.65509156 180.92249895 -195.8046875 174.5546875 C-194.47770725 173.85541003 -193.15039453 173.15676312 -191.82275391 172.45874023 C-174.07406018 163.06371246 -157.79418629 150.85811627 -142.46826172 137.94628906 C-140.0491429 135.92266458 -137.57921751 133.96322444 -135.1171875 131.9921875 C-120.69573179 120.14982968 -106.51297487 106.96105493 -94.97265625 92.28125 C-93.405996 90.31092774 -91.82472527 88.40650784 -90.16796875 86.515625 C-79.69187947 74.54900525 -71.59515161 61.30130799 -63.3671875 47.7421875 C-62.99702515 47.13220917 -62.62686279 46.52223083 -62.2454834 45.89376831 C-58.67647529 40.00724399 -55.12002339 34.11499952 -51.65234375 28.16796875 C-44.66944282 16.27031595 -35.81009864 1.47431865 -21.90234375 -3.06640625 C-13.97864484 -4.49768892 -7.04470439 -4.00936552 0 0 Z " fill="#FAA87B" transform="translate(768.8046875,567.4453125)"/>
<path d="M0 0 C0.33 0 0.66 0 1 0 C1.029729 1.13260254 1.029729 1.13260254 1.06005859 2.28808594 C1.15649239 5.77568593 1.26568279 9.26278097 1.375 12.75 C1.4059375 13.93722656 1.436875 15.12445312 1.46875 16.34765625 C1.72149097 24.05625591 2.5142599 31.43347574 4 39 C4.14018555 39.73766602 4.28037109 40.47533203 4.42480469 41.23535156 C11.17858154 75.56567449 23.24857074 110.52358612 44 139 C44.42861328 139.59554687 44.85722656 140.19109375 45.29882812 140.8046875 C71.32771197 176.8613889 106.81574192 209.09275718 149.91796875 223 C153.00245624 224.00079696 155.94335847 225.19479534 158.9375 226.4375 C178.28662584 233.93973775 198.39197654 237.06214983 219 238 C219.26941406 238.763125 219.53882813 239.52625 219.81640625 240.3125 C222.66491477 246.78040053 229.16300615 250.00515877 235.40234375 252.69921875 C243.44801909 255.60824143 251.74244155 257.77950907 260 260 C259.67 260.99 259.34 261.98 259 263 C226.42109781 266.67306363 193.32406198 266.63873084 161 261 C160.08863281 260.84515137 159.17726563 260.69030273 158.23828125 260.53076172 C152.76496951 259.57293216 147.38048748 258.38493462 142 257 C141.10361816 256.76974121 140.20723633 256.53948242 139.28369141 256.30224609 C102.1938316 246.55495321 69.07504738 229.73876143 39 206 C37.57300781 204.87851562 37.57300781 204.87851562 36.1171875 203.734375 C31.05854562 199.68194799 26.34031373 195.48722314 21.83203125 190.83203125 C20.10498944 189.10498944 18.32252556 187.55065296 16.4375 186 C13.24498298 183.31915049 10.57247207 180.36704202 7.87890625 177.19140625 C5.17637396 174.03938834 2.33568358 171.01643496 -0.49609375 167.98046875 C-18.9449462 146.02029025 -33.78337482 120.75442571 -44 94 C-44.25418701 93.33548828 -44.50837402 92.67097656 -44.77026367 91.98632812 C-50.20607661 77.63812959 -55.03719169 62.982863 -57.8125 47.875 C-57.94865723 47.15199707 -58.08481445 46.42899414 -58.22509766 45.68408203 C-58.82549404 42.20736807 -59.27652336 39.3519593 -58 36 C-57.70867187 37.05316406 -57.41734375 38.10632813 -57.1171875 39.19140625 C-54.62194995 48.03197102 -51.75876809 56.53946033 -48.234375 65.0234375 C-47 68 -47 68 -46 71 C-45.34 71 -44.68 71 -44 71 C-43.896875 71.639375 -43.79375 72.27875 -43.6875 72.9375 C-43.460625 73.618125 -43.23375 74.29875 -43 75 C-41.515 75.495 -41.515 75.495 -40 76 C-39.29788106 77.65204456 -38.63028587 79.31923769 -38 81 C-37.34 81.33 -36.68 81.66 -36 82 C-35.67 82.99 -35.34 83.98 -35 85 C-30.29667912 88.42950481 -26.89831776 89.44386913 -21.11328125 89.43359375 C-18.35811969 88.86830182 -17.02918268 87.94410165 -15 86 C-13.72889362 83.6764798 -13.72889362 83.6764798 -12.875 81 C-12.56304687 80.13375 -12.25109375 79.2675 -11.9296875 78.375 C-9.12125274 68.1796738 -8.32305886 57.76115991 -7.36782837 47.26986694 C-4.1789485 12.5368455 -4.1789485 12.5368455 0 0 Z " fill="#477680" transform="translate(292,533)"/>
<path d="M0 0 C9.50015596 4.2186579 13.54466693 14.26393994 18 23 C24.90265219 36.70794694 24.90265219 36.70794694 34 49 C34.81082031 49.94101562 35.62164062 50.88203125 36.45703125 51.8515625 C42.74304395 59.02150995 49.52544576 65.0634602 57 71 C63.20532951 75.9541873 69.14402687 80.91820046 74.63671875 86.6640625 C76.55249239 88.55767016 78.48891274 90.29014041 80.53515625 92.03515625 C85.52386801 96.38634186 90.15278263 101.06397581 94.80078125 105.7734375 C96.20259932 107.18466953 97.60442379 108.59589526 99.00660229 110.00676918 C102.4217211 113.44458044 105.83133287 116.88783618 109.23803711 120.33398438 C111.1602631 122.27803565 113.08530249 124.21922557 115.01322937 126.15762329 C116.81413962 127.96871686 118.61099739 129.78385328 120.40290833 131.60385132 C125.50331136 136.72491149 130.78486074 141.43426872 136.43351746 145.94473267 C153.78952822 159.8436162 153.78952822 159.8436162 155.5 168.54296875 C155.72854983 173.26395121 155.16157109 177.46603946 152.54296875 181.46484375 C145.02691165 188.94284486 135.10999139 189.25828517 125.2434082 189.24658203 C117.79734036 189.15417864 111.10657874 188.32482873 104 186 C102.76378906 185.5978125 101.52757812 185.195625 100.25390625 184.78125 C71.64722897 174.96599371 46.11753115 156.19265568 28 132 C27.2678125 131.06027344 26.535625 130.12054687 25.78125 129.15234375 C10.50601513 109.29976966 -0.83988184 87.65140531 -9 64 C-9.25507324 63.26910156 -9.51014648 62.53820312 -9.77294922 61.78515625 C-14.5345046 47.97310903 -17.23847921 34.49094881 -17.4375 19.875 C-17.45981689 18.89072021 -17.48213379 17.90644043 -17.50512695 16.89233398 C-17.48218817 9.68645583 -16.12051804 6.46724226 -11.3125 1.125 C-7.47660694 -0.74111014 -4.16035461 -0.8709277 0 0 Z " fill="#FAC75A" transform="translate(327,542)"/>
<path d="M0 0 C2.79419225 3.13745911 3.3184131 5.77763594 3.5625 9.9375 C3.23233238 14.92739182 2.31279044 18.02630337 -1.32421875 21.49609375 C-13.21009813 30.39242132 -29.8635973 34.25551329 -43.85546875 38.796875 C-69.16565086 47.3015622 -91.20435496 59.93243259 -112.1875 76.3125 C-121.47233881 83.53146217 -129.65631174 89.213129 -141.75 89.25 C-143.0184375 89.26675781 -144.286875 89.28351563 -145.59375 89.30078125 C-151.47430508 88.71649533 -156.04872541 86.02821473 -160.25 81.9375 C-164.05458268 76.21481983 -164.93132697 71.02313714 -164.8125 64.25 C-164.80299316 63.3729541 -164.79348633 62.4959082 -164.78369141 61.59228516 C-164.541218 53.96067991 -162.7998366 47.7256184 -159.25 40.9375 C-158.8271875 40.08285156 -158.404375 39.22820312 -157.96875 38.34765625 C-145.83289 16.01626271 -120.76213802 1.09880281 -97.078125 -6.07421875 C-68.51222143 -13.44888569 -24.97165363 -20.41333591 0 0 Z " fill="#6AD78D" transform="translate(548.25,361.0625)"/>
<path d="M0 0 C1.20011719 0.25523437 2.40023437 0.51046875 3.63671875 0.7734375 C22.23241828 5.31303716 39.16186505 17.30048802 50 33 C55.40893395 42.40585146 58.19682443 50.06350087 57 61 C54.85718067 67.33236743 50.66728599 72.4500222 45 76 C33.52068935 79.64742229 21.74878705 74.57521921 11.58764648 69.39306641 C2.46187281 64.59604525 -6.46038442 59.45526975 -15.38037109 54.2890625 C-23.36468847 49.70511084 -31.54315893 45.63754733 -40 42 C-40.75998291 41.6685498 -41.51996582 41.33709961 -42.30297852 40.99560547 C-49.52753393 37.96024651 -56.88864143 36.16774865 -64.52148438 34.46484375 C-72.67212143 32.49124468 -80.34820483 29.36082878 -85 22 C-85.50923168 17.99889396 -85.59209188 15.87248481 -83.30078125 12.49609375 C-64.12983237 -8.30227015 -24.80294222 -5.7798143 0 0 Z " fill="#5DD7CA" transform="translate(596,404)"/>
<path d="M0 0 C1.2684375 -0.02513672 1.2684375 -0.02513672 2.5625 -0.05078125 C5.68077482 0.41396163 6.93861663 0.89323757 9 3.3125 C9.75417368 9.33331985 8.57689456 13.22120219 5.5 18.4375 C5.1390625 19.08219238 4.778125 19.72688477 4.40625 20.39111328 C3.28935183 22.37622527 2.1492857 24.34598865 1 26.3125 C-3.30209635 33.69100109 -7.49358342 41.04730442 -11.1875 48.75 C-11.6505957 49.69625244 -11.6505957 49.69625244 -12.12304688 50.66162109 C-18.24073935 63.69256584 -21.11203093 76.95828102 -23.33398438 91.05664062 C-25.63456742 105.45855643 -28.60650825 118.36047254 -40 128.3125 C-44.32044899 131.41339118 -49.30199796 131.96684325 -54.515625 131.78515625 C-59.00470818 130.93110112 -61.78810612 128.43071364 -65 125.3125 C-65.61875 124.73242188 -66.2375 124.15234375 -66.875 123.5546875 C-74.89185775 115.2959418 -77.47495185 106.27660396 -77.5625 95 C-77.24938374 74.97824928 -69.37309772 57.80230604 -57 42.3125 C-56.278125 41.38824219 -55.55625 40.46398437 -54.8125 39.51171875 C-42.12627491 23.5878633 -26.95497158 11.77525529 -9 2.3125 C-8.31421875 1.91933594 -7.6284375 1.52617187 -6.921875 1.12109375 C-4.52510807 0.11269791 -2.59482563 0.01186658 0 0 Z " fill="#FBDFBA" transform="translate(441,474.6875)"/>
<path d="M0 0 C8.14295831 5.09618029 13.18606944 11.00245186 15.9453125 20.265625 C19.80925978 40.43195661 13.97641268 59.7911084 2.8125 76.65625 C1.17208792 78.83238224 -0.53204898 80.87397076 -2.359375 82.89453125 C-2.88917969 83.50425781 -3.41898438 84.11398437 -3.96484375 84.7421875 C-13.09445128 94.609103 -28.18626688 102.90856032 -41.859375 103.51953125 C-48.1571047 103.05381679 -53.15062357 100.58245074 -57.296875 95.83203125 C-61.41467717 89.9672827 -61.0904254 83.82517573 -60.359375 76.89453125 C-58.84161384 71.33906195 -56.69665285 66.15014538 -54.359375 60.89453125 C-54.03791504 60.16492188 -53.71645508 59.4353125 -53.38525391 58.68359375 C-49.07878462 49.02172379 -44.25757086 39.63874359 -39.234375 30.33203125 C-38.75597168 29.4404834 -38.27756836 28.54893555 -37.78466797 27.63037109 C-30.94386015 15.14910164 -17.74296019 -8.31334062 0 0 Z " fill="#FAF3CF" transform="translate(646.359375,573.10546875)"/>
<path d="M0 0 C7.26875422 4.7105463 12.88570934 11.43432033 15.12109375 19.87109375 C16.82005952 36.74748711 12.15096602 50.28880437 1.93359375 63.55859375 C-4.40863085 71.0471326 -13.41713063 78.95407609 -23.4296875 80.375 C-30.62336476 80.48705105 -36.29752071 80.44863816 -42.078125 75.84375 C-49.71845038 67.47419616 -51.55864223 56.14996807 -51.25 45.203125 C-50.29465896 30.09785728 -42.77828485 16.85904094 -31.8984375 6.55859375 C-23.02554256 -0.85550802 -11.20021831 -4.39194449 0 0 Z " fill="#FAF3D0" transform="translate(368.87890625,443.12890625)"/>
<path d="M0 0 C12.21460232 8.36377905 21.22240114 20.31205607 24.73828125 34.875 C25.1614581 37.9937373 25.26415577 41.04245245 25.23828125 44.1875 C25.23183594 45.0134668 25.22539063 45.83943359 25.21875 46.69042969 C24.97596457 54.87165991 23.28020523 61.84211626 17.765625 68.12109375 C12.27564109 73.22113487 7.91075482 74.25713196 0.51953125 74.1484375 C-8.69307592 73.24270365 -15.41641493 68.76454441 -22.26171875 62.875 C-23.07898438 62.25753906 -23.89625 61.64007812 -24.73828125 61.00390625 C-32.52370032 54.43571214 -37.67876697 45.28401202 -41.26171875 35.875 C-41.69484375 34.76125 -42.12796875 33.6475 -42.57421875 32.5 C-44.53639362 22.15398706 -43.83335525 13.67835254 -37.94140625 4.91015625 C-28.66997456 -7.07177596 -12.4410855 -7.27273199 0 0 Z " fill="#2FCAED" transform="translate(677.26171875,487.125)"/>
<path d="M0 0 C1.18142578 -0.02900391 2.36285156 -0.05800781 3.58007812 -0.08789062 C15.67954928 -0.17407864 25.71496646 1.9357796 34.578125 10.5078125 C37.25602709 13.5107027 37.5930711 15.944266 37.52734375 19.9609375 C36.54043164 26.78991554 32.68722433 32.84158913 27.26171875 37.0078125 C16.725722 43.6349743 5.37472089 46.88367915 -7 46.75 C-8.00812744 46.74097656 -9.01625488 46.73195313 -10.05493164 46.72265625 C-29.17719931 46.28246657 -48.96834215 38.05733578 -62.67578125 24.46484375 C-64.14973789 22.80069916 -65.49224777 21.09972247 -66.8125 19.3125 C-67.59625 18.343125 -68.38 17.37375 -69.1875 16.375 C-71.37950101 12.24392117 -71.34462291 9.94957105 -70.8125 5.3125 C-69.27976798 3.23545348 -68.39657209 2.42908298 -65.84861755 1.92050171 C-64.73137047 1.90837143 -64.73137047 1.90837143 -63.59155273 1.89599609 C-62.31893837 1.87114639 -62.31893837 1.87114639 -61.02061462 1.84579468 C-59.64722679 1.84091537 -59.64722679 1.84091537 -58.24609375 1.8359375 C-57.29742935 1.82035797 -56.34876495 1.80477844 -55.37135315 1.78872681 C-52.33091141 1.74116167 -49.29069626 1.71347447 -46.25 1.6875 C-43.23446453 1.65079879 -40.21905106 1.60987527 -37.20362854 1.56484985 C-35.32816169 1.53802203 -33.4526083 1.5165042 -31.57701111 1.50131226 C-26.36677351 1.43988805 -21.26278148 1.10719405 -16.08329773 0.54327393 C-10.73829024 0.00007787 -5.36732094 0.04349531 0 0 Z " fill="#F99393" transform="translate(556.8125,681.6875)"/>
<path d="M0 0 C11.06537398 4.83111031 17.40212391 13.11596519 22 24 C27.00149906 37.09916421 22.84159039 50.74682545 17.4375 63.05078125 C13.10709812 71.93516554 7.4364915 81.96932932 -2.17578125 85.88671875 C-4.25 86.3125 -4.25 86.3125 -8 86 C-11.41742527 83.3604028 -12.8208912 81.7319743 -13.85546875 77.50390625 C-13.96503906 76.20324219 -14.07460938 74.90257812 -14.1875 73.5625 C-14.30480469 72.28503906 -14.42210937 71.00757813 -14.54296875 69.69140625 C-14.635177 68.61354858 -14.635177 68.61354858 -14.72924805 67.51391602 C-15.05720001 64.46890128 -15.55153769 61.46227541 -16.03125 58.4375 C-17.14798759 50.7509916 -17.33169236 43.19505361 -17.3125 35.4375 C-17.32861328 34.13103516 -17.34472656 32.82457031 -17.36132812 31.47851562 C-17.36650049 21.09757833 -17.36426998 10.00238566 -10 2 C-6.13462576 -0.57691616 -4.61155472 -0.58559425 0 0 Z " fill="#75D682" transform="translate(604,503)"/>
<path d="M0 0 C3.28484968 2.67568742 4.82719096 5.15166472 5.6875 9.375 C4.29020109 16.74257608 -0.75367247 21.18019129 -6.60888672 25.46313477 C-11.08497255 28.3400962 -15.92692372 30.36059615 -20.8125 32.4375 C-22.45496704 33.14700806 -22.45496704 33.14700806 -24.13061523 33.87084961 C-59.2004682 48.8643159 -59.2004682 48.8643159 -70 46 C-72.5625 44.4375 -72.5625 44.4375 -74 42 C-75.08980354 35.67913944 -73.42381675 31.86305907 -69.94921875 26.57421875 C-56.25396465 8.48770082 -22.88370026 -15.0845616 0 0 Z " fill="#57B3B4" transform="translate(499,427)"/>
<path d="M0 0 C7.50153265 2.02708747 14.42675357 5.11314711 21.30859375 8.69140625 C22.36880737 9.24235962 22.36880737 9.24235962 23.45043945 9.80444336 C27.64748584 12.09489077 30.97998 14.50479374 34.12109375 18.19140625 C34.83813 21.9359289 34.3037885 23.78449521 32.74609375 27.25390625 C28.08617731 32.46857465 23.09707755 35.08610384 16.07421875 35.60546875 C5.17985863 35.99744033 -5.32554225 35.10338279 -14.02734375 27.94140625 C-24.62062463 17.92919141 -24.62062463 17.92919141 -25.19140625 11.87890625 C-24.79178781 7.16340869 -23.62513725 3.85826311 -20.16015625 0.55078125 C-14.35907981 -2.90602457 -6.30416823 -1.31416196 0 0 Z " fill="#F7C28D" transform="translate(472.87890625,633.80859375)"/>
<path d="M0 0 C2.2510207 1.59683391 2.90100032 2.5817622 3.5390625 5.27734375 C3.88597362 16.01581973 -1.42547662 23.50236672 -8.4375 31.25 C-17.97087114 40.31547563 -31.56067589 46.24227175 -44.6875 46.375 C-45.97011719 46.40335938 -47.25273438 46.43171875 -48.57421875 46.4609375 C-52 46 -52 46 -54.45703125 44.3515625 C-56 42 -56 42 -56.77734375 39.15625 C-55.52875419 34.08659991 -51.752857 32.30831525 -47.5625 29.5 C-45.81468856 28.2751311 -44.06996092 27.04585165 -42.328125 25.8125 C-41.43931641 25.18601562 -40.55050781 24.55953125 -39.63476562 23.9140625 C-34.83687702 20.42856893 -30.32156041 16.61047548 -25.78540039 12.79492188 C-9.6228988 -0.76372213 -9.6228988 -0.76372213 0 0 Z " fill="#F4C28A" transform="translate(576,610)"/>
<path d="M0 0 C2.36747545 2.17404051 4.26627188 4.45434967 6.19921875 7.01953125 C6.67746094 7.63054687 7.15570312 8.2415625 7.6484375 8.87109375 C11.26612885 14.05226685 13.07922567 19.65184075 12.19921875 26.01953125 C10.17450823 28.83215979 8.99585138 29.86920087 5.5703125 30.515625 C-1.66522832 30.37110687 -7.92092346 29.21847314 -14.80078125 27.01953125 C-16.05890625 26.68953125 -17.31703125 26.35953125 -18.61328125 26.01953125 C-25.34290596 23.90827644 -30.97712645 21.05895592 -34.67578125 14.89453125 C-36.42062105 10.33034578 -35.84547387 5.70886579 -34.80078125 1.01953125 C-34.16728832 -0.32987934 -33.50787456 -1.66812685 -32.80078125 -2.98046875 C-32.80078125 -3.31046875 -32.80078125 -3.64046875 -32.80078125 -3.98046875 C-21.04337278 -5.82718212 -10.13529341 -7.30313921 0 0 Z " fill="#62B0AF" transform="translate(572.80078125,478.98046875)"/>
<path d="M0 0 C0.82113281 -0.020625 1.64226563 -0.04125 2.48828125 -0.0625 C8.25645143 -0.09906526 12.46306031 0.93544115 17.75 3.25 C17.75 3.91 17.75 4.57 17.75 5.25 C18.28625 5.311875 18.8225 5.37375 19.375 5.4375 C22.85792476 6.62902689 25.61239326 8.25315918 27.75 11.25 C28.25326797 14.31582632 28.11195829 17.17335457 27.75 20.25 C21.93014699 21.4139706 18.36952065 21.08547704 12.83203125 19.01953125 C0.4282202 14.43500822 -14.62534953 17.58414454 -26.2890625 22.7578125 C-33.13248228 26.20660717 -39.32506936 30.40618371 -45.25 35.25 C-44.02448206 24.83309752 -35.39746418 15.24108804 -27.4609375 8.74609375 C-18.46284477 2.65727835 -10.66167547 0.06571141 0 0 Z " fill="#30353E" transform="translate(519.25,454.75)"/>
<path d="M0 0 C3.4375 0.6875 3.4375 0.6875 5.4921875 2.66796875 C7.98240479 6.53330603 8.88252233 10.26483089 10 14.6875 C12.45634604 23.7344528 16.17111169 31.58919806 20.83032227 39.70703125 C25.30594407 47.64443005 25.30594407 47.64443005 24.4375 52.6875 C23.7775 53.6775 23.1175 54.6675 22.4375 55.6875 C18.87023924 56.25501876 16.87241484 55.90012503 13.625 54.3125 C1.48449936 45.26288798 -5.62276853 32.28761886 -8.5625 17.6875 C-9.27355441 12.36455999 -9.7086754 7.55801902 -6.5 3 C-3.5625 0.6875 -3.5625 0.6875 0 0 Z " fill="#F58F97" transform="translate(435.5625,564.3125)"/>
<path d="M0 0 C0.33 0 0.66 0 1 0 C1.07756267 4.57619757 0.89735516 8.51322418 0 13 C0.33 13.99 0.66 14.98 1 16 C0.34 16.33 -0.32 16.66 -1 17 C-0.67 17.66 -0.34 18.32 0 19 C-0.66 19 -1.32 19 -2 19 C-2.06058594 19.64066406 -2.12117187 20.28132813 -2.18359375 20.94140625 C-2.67209412 25.98423313 -3.23779286 30.9912102 -4 36 C-4.66 36 -5.32 36 -6 36 C-5.814375 37.03125 -5.62875 38.0625 -5.4375 39.125 C-5 43 -5 43 -5.47265625 45.83203125 C-6.02512694 49.15094777 -6.06347987 52.20203463 -6 55.5625 C-5.92445206 59.57126251 -6.11661072 63.09245324 -7 67 C-7.20291076 68.43540577 -7.39170237 69.87291997 -7.5625 71.3125 C-7.706875 72.529375 -7.85125 73.74625 -8 75 C-7.34 75.33 -6.68 75.66 -6 76 C-6.24447876 76.80872559 -6.24447876 76.80872559 -6.49389648 77.63378906 C-7.09281664 80.43395024 -7.11226789 82.99549433 -7.09765625 85.859375 C-7.09443359 86.97441406 -7.09121094 88.08945312 -7.08789062 89.23828125 C-7.07951172 90.39714844 -7.07113281 91.55601562 -7.0625 92.75 C-7.05798828 93.92433594 -7.05347656 95.09867188 -7.04882812 96.30859375 C-7.03705094 99.20578072 -7.02060326 102.10286454 -7 105 C-7.33 105 -7.66 105 -8 105 C-8.8896007 98.87173866 -9.17446799 92.89942666 -9.203125 86.7109375 C-9.20882507 85.73121979 -9.21452515 84.75150208 -9.22039795 83.74209595 C-9.2298092 81.66954614 -9.23636644 79.59698163 -9.24023438 77.52441406 C-9.24982122 74.43265626 -9.28083189 71.34159883 -9.3125 68.25 C-9.41099368 49.90844024 -7.14010314 32.24322267 -3.375 14.3125 C-3.1584375 13.24451172 -2.941875 12.17652344 -2.71875 11.07617188 C-1.16529403 3.49588208 -1.16529403 3.49588208 0 0 Z " fill="#68AF74" transform="translate(238,447)"/>
<path d="M0 0 C0.99 0.33 1.98 0.66 3 1 C-5.13639093 27.98760654 -17.38726357 53.52919755 -33 77 C-33.33 75.68 -33.66 74.36 -34 73 C-33.34 73 -32.68 73 -32 73 C-31.87625 72.4225 -31.7525 71.845 -31.625 71.25 C-30.99351176 68.97664233 -30.11141809 67.0746471 -29 65 C-28.34 65 -27.68 65 -27 65 C-27.061875 64.21625 -27.12375 63.4325 -27.1875 62.625 C-27.125625 61.75875 -27.06375 60.8925 -27 60 C-26.01 59.34 -25.02 58.68 -24 58 C-22.99831469 56.05167065 -22.99831469 56.05167065 -22.3125 53.875 C-22.06113281 53.15054688 -21.80976562 52.42609375 -21.55078125 51.6796875 C-21.36902344 51.12539063 -21.18726563 50.57109375 -21 50 C-20.34 50 -19.68 50 -19 50 C-18.88785156 49.46890625 -18.77570312 48.9378125 -18.66015625 48.390625 C-17.83141323 45.38949642 -16.65240018 42.61591837 -15.4375 39.75 C-14.75494141 38.13351562 -14.75494141 38.13351562 -14.05859375 36.484375 C-13.70925781 35.66453125 -13.35992188 34.8446875 -13 34 C-12.34 34 -11.68 34 -11 34 C-11 32.02 -11 30.04 -11 28 C-10.01 27.67 -9.02 27.34 -8 27 C-7.87625 26.360625 -7.7525 25.72125 -7.625 25.0625 C-7.315625 23.5465625 -7.315625 23.5465625 -7 22 C-6.85433594 21.24074219 -6.70867188 20.48148438 -6.55859375 19.69921875 C-6.39488281 18.89097656 -6.23117187 18.08273437 -6.0625 17.25 C-5.90910156 16.47140625 -5.75570312 15.6928125 -5.59765625 14.890625 C-5.30181641 13.95476563 -5.30181641 13.95476563 -5 13 C-4.34 12.67 -3.68 12.34 -3 12 C-1.4413321 8.05748707 -0.59835078 4.18845544 0 0 Z " fill="#EABD6F" transform="translate(774,600)"/>
<path d="M0 0 C0.42796875 0.57878906 0.8559375 1.15757812 1.296875 1.75390625 C5.9248053 7.85725469 10.56826362 12.79968237 17 17 C16.67 19.31 16.34 21.62 16 24 C11.54986266 21.58325875 8.05708329 18.54647923 4.375 15.125 C3.80265625 14.60808594 3.2303125 14.09117187 2.640625 13.55859375 C-0.54352393 10.61880974 -2.97396705 7.8940066 -5 4 C-4.34 4 -3.68 4 -3 4 C-1.36323743 2.0399719 -1.36323743 2.0399719 0 0 Z " fill="#1F1E1A" transform="translate(367,588)"/>
<path d="M0 0 C-4.7261408 1.38578308 -8.80553272 0.48171233 -13.5625 -0.5625 C-20.80486249 -1.86241122 -25.01513505 -0.00883744 -31 4 C-33.46373633 6.12209863 -33.46373633 6.12209863 -35 8 C-35.66 7.67 -36.32 7.34 -37 7 C-38.65 8.98 -40.3 10.96 -42 13 C-42.66 12.67 -43.32 12.34 -44 12 C-31.76454887 -2.6527895 -18.39511766 -11.39520563 0 0 Z " fill="#E8C075" transform="translate(771,569)"/>
<path d="M0 0 C0.33 0 0.66 0 1 0 C1.3373884 8.13480908 1.69560745 18.60878509 -2 26 C-2.13845858 27.35032798 -2.22503885 28.70625639 -2.28125 30.0625 C-2.31863281 30.85914063 -2.35601562 31.65578125 -2.39453125 32.4765625 C-2.42933594 33.30929687 -2.46414063 34.14203125 -2.5 35 C-2.56879611 36.64601072 -2.64152756 38.29186307 -2.71875 39.9375 C-2.76418945 41.03384766 -2.76418945 41.03384766 -2.81054688 42.15234375 C-3 44 -3 44 -4 46 C-3.95875 47.258125 -3.9175 48.51625 -3.875 49.8125 C-3.81735524 54.95935369 -4.89669011 59.59261692 -6.14453125 64.56640625 C-6.7302372 66.91725344 -7.26708985 69.2806616 -7.76171875 71.65234375 C-8.00535156 72.81894531 -8.24898438 73.98554687 -8.5 75.1875 C-8.82484375 76.78658203 -8.82484375 76.78658203 -9.15625 78.41796875 C-10 81 -10 81 -13 83 C-12.58620025 80.03443511 -12.14732315 77.36517569 -11.02392578 74.58056641 C-7.29842925 65.19132025 -7.27553822 54.2404998 -6.36755371 44.26904297 C-4.99787659 29.33839055 -3.37190918 14.6355207 0 0 Z " fill="#559176" transform="translate(291,536)"/>
<path d="M0 0 C-3.65849164 2.39156953 -7.05056878 3.755776 -11.25 4.9375 C-22.36486672 7.91508785 -22.36486672 7.91508785 -31 15 C-31 16.32 -31 17.64 -31 19 C-30.34 19.33 -29.68 19.66 -29 20 C-29 20.66 -29 21.32 -29 22 C-28.34 22 -27.68 22 -27 22 C-27 22.66 -27 23.32 -27 24 C-26.16082031 24.26941406 -25.32164062 24.53882813 -24.45703125 24.81640625 C-20.81137982 26.06457844 -17.25228205 27.47944982 -13.6875 28.9375 C-8.1811527 31.1682453 -2.66855844 33.20992891 3 35 C-4.19819238 37.6175245 -13.05451768 32.57252497 -19.61132812 29.51733398 C-25.31723883 26.72921853 -30.24501017 24.19072124 -34 19 C-34.75 15.9375 -34.75 15.9375 -34 13 C-28.71701855 7.33567658 -21.95502295 5.51618665 -14.75 3.125 C-13.55375 2.70992187 -12.3575 2.29484375 -11.125 1.8671875 C-2.27345856 -1.13672928 -2.27345856 -1.13672928 0 0 Z " fill="#D5728A" transform="translate(545,756)"/>
<path d="M0 0 C11.45055848 -0.50455337 20.96770202 0.53043866 32 4 C33.35920115 4.38288284 34.71993327 4.76036635 36.08203125 5.1328125 C46.67450384 8.06308955 56.82164113 11.86913389 67 16 C67 16.33 67 16.66 67 17 C62.63978226 17.42195656 59.22262952 16.20291908 55.18359375 14.75390625 C53.13747852 14.04746575 51.10664786 13.49202887 49 13 C49 12.34 49 11.68 49 11 C48.29875 10.89042969 47.5975 10.78085937 46.875 10.66796875 C38.17876546 9.21465781 38.17876546 9.21465781 34.1875 7.5625 C23.42486789 3.23998244 11.44680171 2.26360798 0 1 C0 0.67 0 0.34 0 0 Z " fill="#3D89AF" transform="translate(553,250)"/>
<path d="M0 0 C4.4903581 4.4903581 3.15844101 12.59636234 3.18554688 18.55664062 C3.18542603 19.54627808 3.18542603 19.54627808 3.18530273 20.5559082 C3.18746743 22.53275708 3.20591427 24.50956647 3.22460938 26.48632812 C3.24459517 39.7635559 2.87243617 53.19885623 -6.3125 63.625 C-7.1478125 64.305625 -7.1478125 64.305625 -8 65 C-8.66 64.67 -9.32 64.34 -10 64 C-8.7260411 61.96166576 -7.38938077 59.96147874 -6 58 C-5.34 58 -4.68 58 -4 58 C3.08330701 39.32582696 1.11001029 19.52428806 0 0 Z " fill="#55B4BE" transform="translate(787,480)"/>
<path d="M0 0 C1.01226654 -0.00067978 1.01226654 -0.00067978 2.04498291 -0.00137329 C16.5042707 0.02721087 29.52410364 2.11427536 43 7.375 C42.67 8.035 42.34 8.695 42 9.375 C40.205625 8.7253125 40.205625 8.7253125 38.375 8.0625 C25.5719267 3.87060573 13.47339342 2.87330279 0.125 2.6875 C-1.54559799 2.65423085 -3.21617198 2.61973284 -4.88671875 2.58398438 C-8.92434355 2.50020063 -12.96192435 2.43288783 -17 2.375 C-11.94529364 -0.99480424 -5.92969668 -0.0152007 0 0 Z " fill="#71BE94" transform="translate(497,348.625)"/>
<path d="M0 0 C3.37462715 0.54723683 5.08235 1.0549 8 3 C8.1875 6.625 8.1875 6.625 8 10 C8.99 10.33 9.98 10.66 11 11 C12.3515625 13.109375 12.3515625 13.109375 13.625 15.75 C14.05039062 16.61109375 14.47578125 17.4721875 14.9140625 18.359375 C16.66245616 22.61086461 17.13065033 26.42723854 17 31 C14.91653662 27.87480492 13.74725478 24.92946677 12.375 21.4375 C9.95742647 15.49946498 6.94566276 10.89553977 2.63671875 6.0859375 C0.98863795 3.98551949 0.4071064 2.607841 0 0 Z " fill="#142226" transform="translate(553,504)"/>
<path d="M0 0 C4.54499655 0.47343714 8.26162939 1.39215175 12.53515625 3.1015625 C17.9109872 5.06105714 23.48834201 6.47500474 29 8 C28.67 8.99 28.34 9.98 28 11 C21.73 11 15.46 11 9 11 C10.32 10.34 11.64 9.68 13 9 C13.66 8.34 14.32 7.68 15 7 C7.575 4.03 7.575 4.03 0 1 C0 0.67 0 0.34 0 0 Z " fill="#447293" transform="translate(523,785)"/>
<path d="M0 0 C3.38231081 1.39957689 5.27928642 2.73064421 7 6 C7.97329531 13.05639097 5.88756301 18.11424939 2 24 C-2.69268218 29.59465226 -9.27214632 32.47844953 -16 35 C-16.66 35 -17.32 35 -18 35 C-18 34.34 -18 33.68 -18 33 C-17.00419922 32.65388672 -17.00419922 32.65388672 -15.98828125 32.30078125 C-10.43297033 30.24896568 -6.92154523 28.41173838 -3 24 C-2.34 24 -1.68 24 -1 24 C-1 23.34 -1 22.68 -1 22 C0.33333333 20.66666667 1.66666667 19.33333333 3 18 C4.49304497 13.5208651 4.72076325 9.00784049 3.125 4.5625 C2.06925899 2.84106726 2.06925899 2.84106726 0 2 C0 1.34 0 0.68 0 0 Z " fill="#E0A891" transform="translate(587,690)"/>
<path d="M0 0 C0.66 0 1.32 0 2 0 C1.78670044 1.02746338 1.78670044 1.02746338 1.5690918 2.07568359 C0.07769819 9.96315027 -0.28062672 17.58262454 -0.20581055 25.60058594 C-0.18745762 27.629685 -0.18530251 29.65832608 -0.18554688 31.6875 C-0.15388704 38.84965713 0.08452313 45.89320257 1 53 C-4.13769569 47.86230431 -3.2828302 38.32521911 -3.32226562 31.53515625 C-3.31904297 30.28605469 -3.31582031 29.03695312 -3.3125 27.75 C-3.32861328 26.51636719 -3.34472656 25.28273438 -3.36132812 24.01171875 C-3.36573692 15.62618812 -2.2414866 8.07715414 0 0 Z " fill="#234B34" transform="translate(588,511)"/>
<path d="M0 0 C1.65 0 3.3 0 5 0 C4.62746094 0.54527344 4.25492188 1.09054687 3.87109375 1.65234375 C0.82203799 6.51255525 -0.84572373 10.10627129 0.23046875 15.859375 C1.86609326 20.40923404 4.74406481 23.73216442 8.953125 26.09765625 C11.04813066 27.04525661 11.04813066 27.04525661 14 28 C13.34 28.66 12.68 29.32 12 30 C6.32330417 26.68976794 1.2037904 23.50603018 -2.375 17.8125 C-3.66474752 12.00863614 -2.82665858 6.20151517 0 1 C0 0.67 0 0.34 0 0 Z " fill="#5F9B9C" transform="translate(540,475)"/>
<path d="M0 0 C1.0625 1.875 1.0625 1.875 2 4 C1.67 4.66 1.34 5.32 1 6 C0.34 6 -0.32 6 -1 6 C-1.33 6.99 -1.66 7.98 -2 9 C-3.63671875 10.39453125 -3.63671875 10.39453125 -5.6875 11.8125 C-9.53458629 14.57824312 -12.73520022 17.57196023 -16 21 C-16.99 20.67 -17.98 20.34 -19 20 C-18.40312378 19.410979 -18.40312378 19.410979 -17.79418945 18.81005859 C-15.96423697 17.00110339 -14.13835686 15.18808863 -12.3125 13.375 C-11.68666016 12.75753906 -11.06082031 12.14007812 -10.41601562 11.50390625 C-6.71588744 7.82315047 -3.27211954 4.06668776 0 0 Z " fill="#140D12" transform="translate(718,705)"/>
<path d="M0 0 C9.75363059 0.2789379 17.30250296 4.77192517 24.19384766 11.51196289 C25.10667941 12.51762499 26.01031346 13.53238925 26.88134766 14.57446289 C26.55134766 15.56446289 26.22134766 16.55446289 25.88134766 17.57446289 C25.44564453 17.03176758 25.00994141 16.48907227 24.56103516 15.92993164 C21.04183698 11.70232344 18.18920262 8.50459197 12.88134766 6.57446289 C11.89134766 6.57446289 10.90134766 6.57446289 9.88134766 6.57446289 C9.41986328 6.09364258 8.95837891 5.61282227 8.48291016 5.11743164 C6.39901498 3.10977653 5.11210062 3.09094525 2.25634766 2.88696289 C1.37978516 2.82250977 0.50322266 2.75805664 -0.39990234 2.69165039 C-4.31404725 2.52293725 -8.20124153 2.51127885 -12.11865234 2.57446289 C-8.83727512 -0.70691433 -4.41678248 0.02291153 0 0 Z " fill="#75DFBF" transform="translate(469.11865234375,249.425537109375)"/>
<path d="M0 0 C0.79481277 0.00424484 1.58962555 0.00848969 2.40852356 0.01286316 C4.94587146 0.02964945 7.48242363 0.06730051 10.01953125 0.10546875 C11.7402229 0.1205157 13.46092701 0.13420409 15.18164062 0.14648438 C19.39874387 0.17955268 23.61525267 0.2313338 27.83203125 0.29296875 C27.83203125 0.62296875 27.83203125 0.95296875 27.83203125 1.29296875 C26.66015259 1.33055298 26.66015259 1.33055298 25.46459961 1.36889648 C21.89943508 1.48547078 18.33449512 1.6079174 14.76953125 1.73046875 C12.92584961 1.78944336 12.92584961 1.78944336 11.04492188 1.84960938 C2.38168269 2.05485573 2.38168269 2.05485573 -6.16796875 3.29296875 C-7.68091163 5.22893907 -7.68091163 5.22893907 -8.16796875 7.29296875 C-8.82796875 7.29296875 -9.48796875 7.29296875 -10.16796875 7.29296875 C-10.49796875 8.61296875 -10.82796875 9.93296875 -11.16796875 11.29296875 C-11.53276196 3.87550675 -11.53276196 3.87550675 -10.16015625 1.68359375 C-7.02364775 -0.50581218 -3.68449594 -0.07390189 0 0 Z " fill="#B35F75" transform="translate(497.16796875,683.70703125)"/>
<path d="M0 0 C0.66 0 1.32 0 2 0 C1.87302734 0.58918213 1.74605469 1.17836426 1.61523438 1.78540039 C0.05093909 9.28391137 -0.94466517 16.80259007 -1.85546875 24.40429688 C-1.97535156 25.34208984 -2.09523438 26.27988281 -2.21875 27.24609375 C-2.32123047 28.08841553 -2.42371094 28.9307373 -2.52929688 29.79858398 C-3 32 -3 32 -5 35 C-5.9360342 31.20732808 -5.98276252 28.06325435 -5.5625 24.1875 C-5.46066406 23.21167969 -5.35882813 22.23585938 -5.25390625 21.23046875 C-5.17011719 20.49441406 -5.08632813 19.75835938 -5 19 C-4.34 19 -3.68 19 -3 19 C-2.979375 17.72125 -2.95875 16.4425 -2.9375 15.125 C-2.92589844 14.40570312 -2.91429687 13.68640625 -2.90234375 12.9453125 C-2.87350758 10.91814596 -2.87350758 10.91814596 -4 9 C-3.34 9 -2.68 9 -2 9 C-1.34 6.03 -0.68 3.06 0 0 Z " fill="#76BF7E" transform="translate(296,501)"/>
<path d="M0 0 C0.33 0 0.66 0 1 0 C1.06058594 0.76183594 1.12117187 1.52367187 1.18359375 2.30859375 C1.44581442 5.53995922 1.72302025 8.76987 2 12 C2.06058594 12.81984375 2.12117187 13.6396875 2.18359375 14.484375 C2.60310971 19.31308931 3.67777661 23.51291555 5.37890625 28.0546875 C6 30 6 30 6 33 C6.66 33 7.32 33 8 33 C8.33 34.98 8.66 36.96 9 39 C5.538075 35.16161834 3.8134709 31.37453572 2.3125 26.5 C2.10044922 25.84902344 1.88839844 25.19804687 1.66992188 24.52734375 C-0.94526454 16.36004233 -2.17650615 8.43396134 0 0 Z " fill="#3486AD" transform="translate(530,270)"/>
<path d="M0 0 C0.66 0.33 1.32 0.66 2 1 C1.68676972 2.67056149 1.34665557 4.33605325 1 6 C0.8659375 6.67417969 0.731875 7.34835937 0.59375 8.04296875 C-0.65858209 13.77238806 -0.65858209 13.77238806 -4 16 C-5 15 -5 15 -5.25 11.8125 C-4.9241609 6.84345371 -3.52537732 3.52537732 0 0 Z " fill="#DEAB7A" transform="translate(453,634)"/>
<path d="M0 0 C0.99 0.33 1.98 0.66 3 1 C-1.29451892 10.19532287 -6.38659219 18.56741404 -12 27 C-12.33 25.68 -12.66 24.36 -13 23 C-12.34 23 -11.68 23 -11 23 C-10.87625 22.4225 -10.7525 21.845 -10.625 21.25 C-9.99351176 18.97664233 -9.11141809 17.0746471 -8 15 C-7.34 15 -6.68 15 -6 15 C-6.0928125 13.824375 -6.0928125 13.824375 -6.1875 12.625 C-6.125625 11.75875 -6.06375 10.8925 -6 10 C-5.01 9.34 -4.02 8.68 -3 8 C-1.99831469 6.05167065 -1.99831469 6.05167065 -1.3125 3.875 C-1.06113281 3.15054688 -0.80976562 2.42609375 -0.55078125 1.6796875 C-0.36902344 1.12539063 -0.18726563 0.57109375 0 0 Z " fill="#E3B473" transform="translate(753,650)"/>
<path d="M0 0 C2.30744831 3.73263697 2.65019137 7.66811418 3.125 11.9375 C3.21136719 12.64068359 3.29773438 13.34386719 3.38671875 14.06835938 C3.81908152 17.72971708 4.10100461 21.31333164 4 25 C4.66 25 5.32 25 6 25 C6.625 27.875 6.625 27.875 7 31 C6.34 31.66 5.68 32.32 5 33 C4.34822031 30.81426438 3.70385326 28.6263177 3.0625 26.4375 C2.70285156 25.21933594 2.34320313 24.00117187 1.97265625 22.74609375 C0.47415606 16.97476171 -0.12939174 11.51586474 -0.0625 5.5625 C-0.05347656 4.51191406 -0.04445312 3.46132813 -0.03515625 2.37890625 C-0.02355469 1.59386719 -0.01195312 0.80882812 0 0 Z " fill="#6FB87B" transform="translate(231,546)"/>
<path d="M0 0 C0.99 0.66 1.98 1.32 3 2 C-23.26666667 12 -23.26666667 12 -28 12 C-27 10 -27 10 -25.07421875 9.18359375 C-24.28660156 8.93738281 -23.49898437 8.69117188 -22.6875 8.4375 C-21.51767578 8.06431641 -21.51767578 8.06431641 -20.32421875 7.68359375 C-17.0750307 6.72795021 -14.40729006 6 -11 6 C-10.67 5.34 -10.34 4.68 -10 4 C-7.8203125 2.859375 -7.8203125 2.859375 -5.125 1.75 C-4.24070312 1.37359375 -3.35640625 0.9971875 -2.4453125 0.609375 C-1.63835938 0.40828125 -0.83140625 0.2071875 0 0 Z " fill="#E78986" transform="translate(617,775)"/>
<path d="M0 0 C1.7109375 1.1796875 1.7109375 1.1796875 3 3 C3.29296875 5.69921875 3.29296875 5.69921875 3.1875 8.6875 C3.16042969 9.68136719 3.13335938 10.67523437 3.10546875 11.69921875 C3.07066406 12.45847656 3.03585937 13.21773437 3 14 C2.67 14 2.34 14 2 14 C1.80083984 12.93458984 1.80083984 12.93458984 1.59765625 11.84765625 C1.42105469 10.92855469 1.24445312 10.00945313 1.0625 9.0625 C0.88847656 8.14597656 0.71445312 7.22945312 0.53515625 6.28515625 C0.22285012 4.04710156 0.22285012 4.04710156 -1 3 C-5.31283559 2.56871644 -8.09870726 2.80957469 -11.75 5.0625 C-12.8225 5.701875 -13.895 6.34125 -15 7 C-15.99 6.67 -16.98 6.34 -18 6 C-11.93060574 1.8210728 -7.49329569 -1.18315195 0 0 Z " fill="#CEAF8C" transform="translate(576,610)"/>
<path d="M0 0 C3.58417307 1.39273973 7.05389464 2.93650804 10.51953125 4.6015625 C12.0519043 5.33632813 12.0519043 5.33632813 13.61523438 6.0859375 C14.67033203 6.59382813 15.72542969 7.10171875 16.8125 7.625 C17.88693359 8.140625 18.96136719 8.65625 20.06835938 9.1875 C22.71293417 10.4568959 25.35678484 11.72777605 28 13 C28 13.33 28 13.66 28 14 C26.35 14 24.7 14 23 14 C23 13.34 23 12.68 23 12 C21.68 12 20.36 12 19 12 C19 11.34 19 10.68 19 10 C17.68 10 16.36 10 15 10 C15 9.34 15 8.68 15 8 C14.21625 7.938125 13.4325 7.87625 12.625 7.8125 C7.64711207 6.6967665 3.47546306 4.39693773 -1 2 C-0.67 1.34 -0.34 0.68 0 0 Z " fill="#3D8FB4" transform="translate(622,267)"/>
<path d="M0 0 C0 3.10551666 -0.5393715 4.35261084 -2 7 C1.0745356 6.2236068 1.0745356 6.2236068 3 4 C3 5.32 3 6.64 3 8 C1.1015625 9.88671875 1.1015625 9.88671875 -1.375 11.6875 C-2.18710937 12.28949219 -2.99921875 12.89148438 -3.8359375 13.51171875 C-6 15 -6 15 -8 16 C-6.80102978 9.28576679 -4.38555881 5.1854406 0 0 Z " fill="#212B32" transform="translate(482,474)"/>
<path d="M0 0 C1.99097846 2.98646769 2.94124926 5.59687262 4 9 C0.03653941 13.54632244 -2.97663404 14.42812444 -9 14.9375 C-13.87044744 15.23122216 -17.45022946 14.78245584 -22 13 C-22 12.34 -22 11.68 -22 11 C-21.13375 11.165 -20.2675 11.33 -19.375 11.5 C-13.30238178 12.39266231 -7.12033868 12.07639812 -1 12 C-0.835 10.7625 -0.67 9.525 -0.5 8.25 C-0.36078125 7.20585937 -0.36078125 7.20585937 -0.21875 6.140625 C0.06777357 3.69541605 0.06777357 3.69541605 0 0 Z " fill="#224146" transform="translate(584,496)"/>
<path d="M0 0 C0.66 0.99 1.32 1.98 2 3 C1.21625 3.7425 0.4325 4.485 -0.375 5.25 C-2.56504531 7.54433318 -3.82731386 9.12158858 -5 12 C-5.99 12 -6.98 12 -8 12 C-8 11.01 -8 10.02 -8 9 C-8.66 8.34 -9.32 7.68 -10 7 C-6.7 4.69 -3.4 2.38 0 0 Z " fill="#69DF9C" transform="translate(355,291)"/>
<path d="M0 0 C-6.32477226 2.67805672 -12.67046273 5.29877748 -19.0625 7.8125 C-20.65771484 8.44091797 -20.65771484 8.44091797 -22.28515625 9.08203125 C-25 10 -25 10 -28 10 C-28 9.34 -28 8.68 -28 8 C-23.03136305 6.23730331 -18.06027774 4.48188826 -13.0859375 2.73535156 C-11.36748563 2.12954901 -9.65206465 1.51515591 -7.9375 0.8984375 C-2.22466216 -1.11233108 -2.22466216 -1.11233108 0 0 Z " fill="#72DCB0" transform="translate(467,329)"/>
<path d="M0 0 C-3.13091521 6.48546721 -3.13091521 6.48546721 -6.35546875 8.39453125 C-9.2787193 10.16920773 -11.09655161 12.09596714 -13.3125 14.6875 C-14.35857422 15.89986328 -14.35857422 15.89986328 -15.42578125 17.13671875 C-16.20501953 18.05904297 -16.20501953 18.05904297 -17 19 C-17.66 18.67 -18.32 18.34 -19 18 C-2.63106796 0 -2.63106796 0 0 0 Z " fill="#0C2A1E" transform="translate(366,387)"/>
<path d="M0 0 C8.70057407 -0.6727248 14.55361975 0.38719808 22 5 C18.08263419 6.1700097 15.02040985 5.69584017 11 5 C11 4.34 11 3.68 11 3 C7.37 2.34 3.74 1.68 0 1 C0 0.67 0 0.34 0 0 Z " fill="#DAB262" transform="translate(749,564)"/>
<path d="M0 0 C0.66 0 1.32 0 2 0 C4 6 6 12 8 18 C8.66 18 9.32 18 10 18 C10.33 20.64 10.66 23.28 11 26 C8.41991052 23.71597131 7.22543328 21.62625951 5.95703125 18.4375 C5.60576172 17.55835938 5.25449219 16.67921875 4.89257812 15.7734375 C4.35793945 14.40058594 4.35793945 14.40058594 3.8125 13 C3.44447266 12.08476563 3.07644531 11.16953125 2.69726562 10.2265625 C0 3.40082908 0 3.40082908 0 0 Z " fill="#48B6C6" transform="translate(725,507)"/>
<path d="M0 0 C0.66 0 1.32 0 2 0 C4.81552726 6.78743178 5.3689719 12.68889006 5 20 C4.34 20.33 3.68 20.66 3 21 C2.42351344 17.12930453 1.91070804 13.26694762 1.5 9.375 C1.15858196 6.2046896 0.70323468 3.11432501 0 0 Z " fill="#72CEBA" transform="translate(499,272)"/>
<path d="M0 0 C1.125 1.5625 1.125 1.5625 2 4 C1.3125 7.6875 1.3125 7.6875 0 11 C-0.99 11.33 -1.98 11.66 -3 12 C-3.99 13.485 -3.99 13.485 -5 15 C-6.32 14.67 -7.64 14.34 -9 14 C-8.60167969 13.57589844 -8.20335937 13.15179687 -7.79296875 12.71484375 C-4.14137539 8.67232555 -1.87842746 5.11349698 0 0 Z " fill="#08222B" transform="translate(787,531)"/>
<path d="M0 0 C0.66 0.99 1.32 1.98 2 3 C1.401875 3.391875 0.80375 3.78375 0.1875 4.1875 C-2.27787986 6.23024331 -3.39087122 8.25107166 -5 11 C-6.9375 13.375 -6.9375 13.375 -9 15 C-11.25 14.75 -11.25 14.75 -13 14 C-11.625 12.5 -11.625 12.5 -10 11 C-9.34 11 -8.68 11 -8 11 C-7.67 10.01 -7.34 9.02 -7 8 C-6.34 8 -5.68 8 -5 8 C-4.731875 7.4225 -4.46375 6.845 -4.1875 6.25 C-2.98280141 3.9674132 -1.59201885 2.0262058 0 0 Z " fill="#0C191B" transform="translate(561,598)"/>
<path d="M0 0 C-0.99 1.485 -0.99 1.485 -2 3 C-4.77262255 3.38394667 -7.34323528 3.60342248 -10.125 3.6875 C-10.87910156 3.72166016 -11.63320313 3.75582031 -12.41015625 3.79101562 C-14.27291201 3.87354278 -16.13643326 3.93844711 -18 4 C-18 3.34 -18 2.68 -18 2 C-18.66 2 -19.32 2 -20 2 C-19.67 1.34 -19.34 0.68 -19 0 C-18.1646875 0.14308594 -18.1646875 0.14308594 -17.3125 0.2890625 C-12.30967307 1.01582452 -3.77103728 -1.88551864 0 0 Z " fill="#142932" transform="translate(448,472)"/>
<path d="M0 0 C0.66 1.32 1.32 2.64 2 4 C1.443125 4.66 0.88625 5.32 0.3125 6 C-1.99528942 8.99388897 -3.87738722 12.05498361 -5.75390625 15.328125 C-7 17 -7 17 -10 18 C-8.47146065 13.72813475 -6.28490519 10.00673137 -3.875 6.1875 C-3.50246094 5.59001953 -3.12992188 4.99253906 -2.74609375 4.37695312 C-1.8342952 2.91573749 -0.91764024 1.45755415 0 0 Z " fill="#DDB074" transform="translate(708,611)"/>
<path d="M0 0 C3 2 3 2 4 5 C4.11953769 6.97654185 4.17526196 8.95738456 4.1875 10.9375 C4.20167969 11.97777344 4.21585938 13.01804687 4.23046875 14.08984375 C4.00392282 16.95046613 3.47733619 18.57670151 2 21 C1.93941406 19.98679687 1.87882813 18.97359375 1.81640625 17.9296875 C1.73193296 16.57811486 1.64728843 15.22655291 1.5625 13.875 C1.50352539 12.87726562 1.50352539 12.87726562 1.44335938 11.859375 C1.187848 7.84981183 0.73217587 3.95005804 0 0 Z " fill="#D5AF65" transform="translate(775,577)"/>
<path d="M0 0 C0.33 0.66 0.66 1.32 1 2 C-0.24685757 3.58580914 -1.49763026 5.1685404 -2.75 6.75 C-3.44609375 7.63171875 -4.1421875 8.5134375 -4.859375 9.421875 C-6.79945897 11.75847248 -8.81512186 13.8938562 -11 16 C-11.66 15.67 -12.32 15.34 -13 15 C-11.20942753 12.87406947 -9.41759447 10.74922444 -7.625 8.625 C-7.11710937 8.02171875 -6.60921875 7.4184375 -6.0859375 6.796875 C-5.59609375 6.21679688 -5.10625 5.63671875 -4.6015625 5.0390625 C-4.15119629 4.50490723 -3.70083008 3.97075195 -3.23681641 3.42041016 C-2.20600388 2.23658322 -1.10995961 1.10995961 0 0 Z " fill="#EBD4B6" transform="translate(396,503)"/>
<path d="M0 0 C9.33972615 0.59923022 18.34826007 2.35965041 27 6 C26.67 6.66 26.34 7.32 26 8 C24.2984375 7.38125 24.2984375 7.38125 22.5625 6.75 C15.19755876 4.27528502 7.56992581 2.71214166 0 1 C0 0.67 0 0.34 0 0 Z " fill="#76CDA2" transform="translate(513,350)"/>
<path d="M0 0 C0.66 0.99 1.32 1.98 2 3 C1.01 3.33 0.02 3.66 -1 4 C-0.34 4.66 0.32 5.32 1 6 C0.9375 8.5 0.9375 8.5 0 11 C-2.5625 12.3125 -2.5625 12.3125 -5 13 C-5 8.85323868 -4.5223055 7.68791935 -2.5 4.25 C-2.0359375 3.45078125 -1.571875 2.6515625 -1.09375 1.828125 C-0.7328125 1.22484375 -0.371875 0.6215625 0 0 Z " fill="#0C2019" transform="translate(323,439)"/>
<path d="M0 0 C3.37462715 0.54723683 5.08235 1.0549 8 3 C8.1875 6.125 8.1875 6.125 8 9 C2.25 5.25 2.25 5.25 0 3 C0 2.01 0 1.02 0 0 Z " fill="#192A32" transform="translate(553,504)"/>
<path d="M0 0 C0.99 0.33 1.98 0.66 3 1 C2.24203125 1.72316406 2.24203125 1.72316406 1.46875 2.4609375 C0.8190625 3.09257812 0.169375 3.72421875 -0.5 4.375 C-1.1496875 5.00148438 -1.799375 5.62796875 -2.46875 6.2734375 C-4.22117431 7.86475907 -4.22117431 7.86475907 -4 10 C-5.98 10.66 -7.96 11.32 -10 12 C-7.49653351 7.14032976 -3.91447559 3.72143296 0 0 Z " fill="#57A5AA" transform="translate(439,443)"/>
<path d="M0 0 C0.33 0 0.66 0 1 0 C2.51708428 9.41002278 2.51708428 9.41002278 0 14 C-0.66 14 -1.32 14 -2 14 C-2 14.66 -2 15.32 -2 16 C-2.66 16 -3.32 16 -4 16 C-2.68 10.72 -1.36 5.44 0 0 Z " fill="#212529" transform="translate(383,478)"/>
<path d="M0 0 C0 3 0 3 -2.4375 5.5 C-3.283125 6.325 -4.12875 7.15 -5 8 C-5.33 8.99 -5.66 9.98 -6 11 C-7.98 11 -9.96 11 -12 11 C-8.19588166 7.08060535 -4.18423892 3.50897269 0 0 Z " fill="#081D19" transform="translate(382,372)"/>
<path d="M0 0 C2.03414995 3.05122492 2.77922779 5.29017607 3.6875 8.8125 C3.95949219 9.82957031 4.23148438 10.84664062 4.51171875 11.89453125 C5.03517129 15.22368942 4.72860514 17.72861182 4 21 C3.67 21 3.34 21 3 21 C2.49576443 18.25071558 1.99646574 15.50068857 1.5 12.75 C1.35691406 11.97269531 1.21382812 11.19539062 1.06640625 10.39453125 C0.93105469 9.64042969 0.79570312 8.88632812 0.65625 8.109375 C0.46772461 7.07248535 0.46772461 7.07248535 0.27539062 6.01464844 C0 4 0 4 0 0 Z " fill="#417471" transform="translate(233,569)"/>
<path d="M0 0 C0.99 0.66 1.98 1.32 3 2 C2.195625 2.61875 1.39125 3.2375 0.5625 3.875 C-2.03874519 5.74164041 -2.03874519 5.74164041 -3 8 C-3.66 8 -4.32 8 -5 8 C-5.33 8.99 -5.66 9.98 -6 11 C-6.99 10.34 -7.98 9.68 -9 9 C-6.03 6.03 -3.06 3.06 0 0 Z " fill="#5EC482" transform="translate(407,379)"/>
<path d="M0 0 C2.05726905 0.6367673 2.05726905 0.6367673 4.90234375 0.5078125 C4.90234375 1.4978125 4.90234375 2.4878125 4.90234375 3.5078125 C-0.33645703 2.95635979 -5.07116322 2.07859157 -10.09765625 0.5078125 C-6.52121147 -2.17452108 -3.96444208 -1.20226842 0 0 Z " fill="#2A5C76" transform="translate(441.09765625,788.4921875)"/>
<path d="M0 0 C5.26964527 2.63482263 8.97903554 6.79943911 13 11 C12.34 11.66 11.68 12.32 11 13 C9.49403892 11.54782324 7.99537896 10.08807139 6.5 8.625 C5.24703125 7.40683594 5.24703125 7.40683594 3.96875 6.1640625 C2 4 2 4 2 2 C1.34 2 0.68 2 0 2 C0 1.34 0 0.68 0 0 Z " fill="#DBB262" transform="translate(403,631)"/>
<path d="M0 0 C1.37562854 1.28965176 2.70766393 2.62689293 4 4 C4 4.66 4 5.32 4 6 C4.99 6.33 5.98 6.66 7 7 C8.84499398 8.87617698 10.3683599 10.92737609 12 13 C11.67 13.66 11.34 14.32 11 15 C10.401875 14.360625 9.80375 13.72125 9.1875 13.0625 C7.09189663 10.79689611 7.09189663 10.79689611 4 10 C3.67 8.35 3.34 6.7 3 5 C2.34 5 1.68 5 1 5 C0.67 3.35 0.34 1.7 0 0 Z " fill="#192325" transform="translate(461,592)"/>
<path d="M0 0 C0.66 0 1.32 0 2 0 C1.86722656 0.7734375 1.73445312 1.546875 1.59765625 2.34375 C0.60135293 8.21975787 -0.31684465 14.07932027 -1 20 C-1.33 20 -1.66 20 -2 20 C-3.7952211 12.98231752 -1.82890792 6.87132073 0 0 Z " fill="#123226" transform="translate(588,511)"/>
<path d="M0 0 C0 0.66 0 1.32 0 2 C-1.95330868 3.03041513 -3.91281528 4.0490893 -5.875 5.0625 C-6.96554687 5.63097656 -8.05609375 6.19945312 -9.1796875 6.78515625 C-10.11039063 7.18605469 -11.04109375 7.58695312 -12 8 C-12.66 7.67 -13.32 7.34 -14 7 C-12.70982586 6.01886757 -11.41780894 5.04015801 -10.125 4.0625 C-9.04605469 3.24458984 -9.04605469 3.24458984 -7.9453125 2.41015625 C-4.8353711 0.15576098 -4.0828382 0 0 0 Z " fill="#3886AC" transform="translate(551,251)"/>
<path d="M0 0 C1.35258028 3.0740461 0.89891744 4.32571048 -0.125 7.625 C-2 11 -2 11 -4.6875 12.4375 C-5.450625 12.623125 -6.21375 12.80875 -7 13 C-7.66 12.34 -8.32 11.68 -9 11 C-8.071875 10.29875 -7.14375 9.5975 -6.1875 8.875 C-3.09904705 6.32684378 -1.55573813 3.71648553 0 0 Z " fill="#052B36" transform="translate(699,547)"/>
<path d="M0 0 C2 2 2 2 2 6 C1.34 6 0.68 6 0 6 C-0.12375 6.94875 -0.2475 7.8975 -0.375 8.875 C-1 12 -1 12 -3 14 C-4.25955231 10.22134307 -3.48087189 8.96588214 -2.0625 5.3125 C-1.68222656 4.31863281 -1.30195313 3.32476562 -0.91015625 2.30078125 C-0.60980469 1.54152344 -0.30945313 0.78226562 0 0 Z " fill="#67C17F" transform="translate(389,402)"/>
<path d="M0 0 C2.31 0.33 4.62 0.66 7 1 C6 3 6 3 3.8203125 3.8515625 C2.48613281 4.23441406 2.48613281 4.23441406 1.125 4.625 C0.24070312 4.88539063 -0.64359375 5.14578125 -1.5546875 5.4140625 C-4 6 -4 6 -7 6 C-7 5.34 -7 4.68 -7 4 C-4.69 3.34 -2.38 2.68 0 2 C0 1.34 0 0.68 0 0 Z " fill="#0D2922" transform="translate(436,250)"/>
<path d="M0 0 C0.33 1.32 0.66 2.64 1 4 C0.34 4 -0.32 4 -1 4 C-1.103125 4.515625 -1.20625 5.03125 -1.3125 5.5625 C-2.24263866 8.86026435 -3.61395512 11.86633332 -5 15 C-5.99 15 -6.98 15 -8 15 C-6.62712658 11.30123909 -4.93644547 8.0485524 -2.875 4.6875 C-2.33617187 3.80449219 -1.79734375 2.92148437 -1.2421875 2.01171875 C-0.83226562 1.34785156 -0.42234375 0.68398438 0 0 Z " fill="#DEB36C" transform="translate(723,586)"/>
<path d="M0 0 C2.46140365 2.46140365 3.30326986 4.78456293 4.625 8 C5.07101562 9.0725 5.51703125 10.145 5.9765625 11.25 C7 14 7 14 7 16 C6.01 16 5.02 16 4 16 C2.06757715 12.65479742 1.4536147 9.55232518 0.875 5.75 C0.70742188 4.67234375 0.53984375 3.5946875 0.3671875 2.484375 C0.24601562 1.66453125 0.12484375 0.8446875 0 0 Z " fill="#121B20" transform="translate(454,576)"/>
<path d="M0 0 C-2 2 -2 2 -4.2421875 2.16015625 C-5.11101563 2.12792969 -5.97984375 2.09570312 -6.875 2.0625 C-10.14552516 1.95022824 -12.85645696 2.05693709 -16 3 C-16 2.34 -16 1.68 -16 1 C-11.03521396 -2.17746307 -5.49763065 -1.33275895 0 0 Z " fill="#FBC964" transform="translate(761,566)"/>
<path d="M0 0 C0.33 0 0.66 0 1 0 C1.12086218 6.43255401 0.82351864 12.61773055 0 19 C-2 17 -2 17 -2.25 13.4375 C-2.14813223 8.81100566 -1.15738467 4.46419802 0 0 Z " fill="#4F9063" transform="translate(291,536)"/>
<path d="M0 0 C2.5215021 -0.08172936 5.04029917 -0.14083373 7.5625 -0.1875 C8.26697266 -0.21263672 8.97144531 -0.23777344 9.69726562 -0.26367188 C14.88003315 -0.33532304 18.36264182 0.67827402 23 3 C23 3.33 23 3.66 23 4 C17.46278755 4.25169147 17.46278755 4.25169147 15.21875 3.03125 C12.22433208 1.63947829 9.53458979 1.57207539 6.25 1.375 C4.49429688 1.26285156 4.49429688 1.26285156 2.703125 1.1484375 C1.81109375 1.09945313 0.9190625 1.05046875 0 1 C0 0.67 0 0.34 0 0 Z " fill="#3DB1D3" transform="translate(652,483)"/>
<path d="M0 0 C-1 3 -1 3 -3 5 C-3.99 5.33 -4.98 5.66 -6 6 C-6.33 6.66 -6.66 7.32 -7 8 C-8.32 7.67 -9.64 7.34 -11 7 C-9.73742767 5.82439821 -8.46462916 4.65977135 -7.1875 3.5 C-6.12595703 2.52546875 -6.12595703 2.52546875 -5.04296875 1.53125 C-3 0 -3 0 0 0 Z " fill="#6DDFA0" transform="translate(343,302)"/>
<path d="M0 0 C-4.52319089 2.33958149 -8.65452214 3.31502804 -13.6875 4.0625 C-15.45673828 4.32740234 -15.45673828 4.32740234 -17.26171875 4.59765625 C-18.61716797 4.79681641 -18.61716797 4.79681641 -20 5 C-14.9627206 -0.0372794 -6.75857553 -0.37547642 0 0 Z " fill="#77DEB9" transform="translate(450,252)"/>
<path d="M0 0 C2.31 0 4.62 0 7 0 C7 0.66 7 1.32 7 2 C9.31 2 11.62 2 14 2 C14.33 2.66 14.66 3.32 15 4 C14.67 4.66 14.34 5.32 14 6 C9.27934033 4.45730076 4.58335908 2.92205381 0 1 C0 0.67 0 0.34 0 0 Z " fill="#2E607D" transform="translate(392,775)"/>
<path d="M0 0 C2.5308463 2.5308463 2.82870582 4.48137707 3.6875 7.9375 C3.95949219 8.99839844 4.23148438 10.05929687 4.51171875 11.15234375 C5 14 5 14 4 17 C4 16.34 4 15.68 4 15 C3.34 15 2.68 15 2 15 C1.66365624 13.06302033 1.33102835 11.12539514 1 9.1875 C0.814375 8.10855469 0.62875 7.02960937 0.4375 5.91796875 C0 3 0 3 0 0 Z " fill="#03090A" transform="translate(208,603)"/>
<path d="M0 0 C0.66 0.33 1.32 0.66 2 1 C0.19511787 3.86733048 -1.6317567 6.56775013 -4 9 C-7.375 9.5 -7.375 9.5 -10 9 C-6.83047153 5.73991357 -3.60062011 2.77762123 0 0 Z " fill="#D8B085" transform="translate(541,630)"/>
<path d="M0 0 C0.99 0.33 1.98 0.66 3 1 C3.12375 2.010625 3.2475 3.02125 3.375 4.0625 C3.98085335 7.87937612 4.87193912 11.31500112 6 15 C5.01 15.495 5.01 15.495 4 16 C3.32586789 14.08594633 2.6609668 12.16863974 2 10.25 C1.62875 9.18265625 1.2575 8.1153125 0.875 7.015625 C0 4 0 4 0 0 Z " fill="#537C82" transform="translate(242,606)"/>
<path d="M0 0 C0.66 0.33 1.32 0.66 2 1 C0.92807816 2.3218362 -0.15802695 3.63217927 -1.25 4.9375 C-1.85328125 5.66839844 -2.4565625 6.39929688 -3.078125 7.15234375 C-5.10741134 9.10326334 -6.254407 9.61731779 -9 10 C-8.06409496 8.8944811 -7.12620142 7.79064547 -6.1875 6.6875 C-5.66542969 6.07261719 -5.14335938 5.45773437 -4.60546875 4.82421875 C-3.12827531 3.14575321 -1.59960869 1.56117966 0 0 Z " fill="#DFDCC3" transform="translate(627,576)"/>
<path d="M0 0 C3 2 3 2 3.5625 4.375 C3.706875 5.24125 3.85125 6.1075 4 7 C4.65129797 8.34090759 5.31513275 9.67592331 6 11 C6 11.66 6 12.32 6 13 C6.66 13.33 7.32 13.66 8 14 C7.01 14.33 6.02 14.66 5 15 C4.15733289 13.25447527 3.32619962 11.5033792 2.5 9.75 C2.0359375 8.77546875 1.571875 7.8009375 1.09375 6.796875 C0 4 0 4 0 0 Z " fill="#43B3C7" transform="translate(713,478)"/>
<path d="M0 0 C1.0625 1.875 1.0625 1.875 2 4 C1.67 4.66 1.34 5.32 1 6 C0.34 6 -0.32 6 -1 6 C-1.33 6.99 -1.66 7.98 -2 9 C-2.66 8.34 -3.32 7.68 -4 7 C-3.68134222 3.70720291 -2.45484649 2.13464912 0 0 Z " fill="#19161B" transform="translate(718,705)"/>
<path d="M0 0 C3.77727089 1.81309003 7.37269822 3.9073259 11 6 C11 6.66 11 7.32 11 8 C10.01 8.33 9.02 8.66 8 9 C5.95703125 7.63671875 5.95703125 7.63671875 3.8125 5.6875 C2.73935547 4.73423828 2.73935547 4.73423828 1.64453125 3.76171875 C0 2 0 2 0 0 Z " fill="#231A10" transform="translate(384,612)"/>
<path d="M0 0 C0.33 0 0.66 0 1 0 C1.4375 2.0625 1.4375 2.0625 1 5 C-1.12080183 7.57260172 -3.50627561 9.79254499 -6 12 C-6.66 11.67 -7.32 11.34 -8 11 C-6.69144447 9.16384919 -5.37805538 7.33114211 -4.0625 5.5 C-3.33160156 4.4790625 -2.60070312 3.458125 -1.84765625 2.40625 C-1.23792969 1.6121875 -0.62820313 0.818125 0 0 Z " fill="#0A1E15" transform="translate(618,571)"/>
<path d="M0 0 C1 3 1 3 1 7 C0.34 7 -0.32 7 -1 7 C-1.33 7.66 -1.66 8.32 -2 9 C-4.0625 9.625 -4.0625 9.625 -6 10 C-4.27256146 6.38060496 -2.52349243 3.12432397 0 0 Z " fill="#0B221B" transform="translate(336,419)"/>
<path d="M0 0 C-1.60032137 0.84069415 -3.20541171 1.67231505 -4.8125 2.5 C-6.15248047 3.19609375 -6.15248047 3.19609375 -7.51953125 3.90625 C-10 5 -10 5 -13 5 C-13 4.34 -13 3.68 -13 3 C-12.01 3 -11.02 3 -10 3 C-9.67 2.01 -9.34 1.02 -9 0 C-2.25 -1.125 -2.25 -1.125 0 0 Z " fill="#72DEAA" transform="translate(438,340)"/>
<path d="M0 0 C0.33 0 0.66 0 1 0 C1.19456705 1.95764383 1.38044247 3.91615321 1.5625 5.875 C1.66691406 6.96554687 1.77132812 8.05609375 1.87890625 9.1796875 C2 12 2 12 1 14 C0.34 14 -0.32 14 -1 14 C-1.18451025 4.58997722 -1.18451025 4.58997722 0 0 Z " fill="#287097" transform="translate(530,270)"/>
<path d="M0 0 C1.75 0.125 1.75 0.125 4 1 C6.3125 3.875 6.3125 3.875 8 7 C7.67 7.99 7.34 8.98 7 10 C6.01524786 8.90081184 5.03739527 7.7954398 4.0625 6.6875 C3.51722656 6.07261719 2.97195313 5.45773437 2.41015625 4.82421875 C1 3 1 3 0 0 Z " fill="#E17597" transform="translate(489,698)"/>
<path d="M0 0 C0.66 0.33 1.32 0.66 2 1 C1.25 5.75 1.25 5.75 -1 8 C-1.99 7.67 -2.98 7.34 -4 7 C-2.92598892 4.08482708 -2.22189824 2.22189824 0 0 Z " fill="#E4B487" transform="translate(453,634)"/>
<path d="M0 0 C0 0.99 0 1.98 0 3 C-2.49505962 5.49505962 -3.67328888 5.35948376 -7.125 5.625 C-8.03507812 5.69976563 -8.94515625 5.77453125 -9.8828125 5.8515625 C-10.93082031 5.92503906 -10.93082031 5.92503906 -12 6 C-12.33 5.34 -12.66 4.68 -13 4 C-12.39671875 3.96261719 -11.7934375 3.92523437 -11.171875 3.88671875 C-5.00632228 3.43746659 -5.00632228 3.43746659 0 0 Z " fill="#558B79" transform="translate(277,619)"/>
<path d="M0 0 C0.99 0.33 1.98 0.66 3 1 C-0.92826365 3.77675038 -3.53124892 4.34512366 -8.3125 4.1875 C-9.91544922 4.14689453 -9.91544922 4.14689453 -11.55078125 4.10546875 C-12.35902344 4.07066406 -13.16726563 4.03585937 -14 4 C-14 3.67 -14 3.34 -14 3 C-13.15695312 2.86722656 -12.31390625 2.73445312 -11.4453125 2.59765625 C-10.34960938 2.42105469 -9.25390625 2.24445312 -8.125 2.0625 C-6.48917969 1.80146484 -6.48917969 1.80146484 -4.8203125 1.53515625 C-2.06178454 1.14448841 -2.06178454 1.14448841 0 0 Z " fill="#54B9C2" transform="translate(773,546)"/>
<path d="M0 0 C1.47968324 0.14049518 2.95874516 0.28754826 4.4375 0.4375 C5.67306641 0.55931641 5.67306641 0.55931641 6.93359375 0.68359375 C9 1 9 1 10 2 C12.32817964 2.36760731 14.6618385 2.70241581 17 3 C17 3.33 17 3.66 17 4 C10.66606918 4.34548714 5.89738492 3.29342747 0 1 C0 0.67 0 0.34 0 0 Z " fill="#62B3AD" transform="translate(620,477)"/>
<path d="M0 0 C0.66 0.33 1.32 0.66 2 1 C1.34 2.32 0.68 3.64 0 5 C-0.66 5 -1.32 5 -2 5 C-2 7.31 -2 9.62 -2 12 C-2.66 12 -3.32 12 -4 12 C-4.33292585 7.75519536 -4.43885872 5.64457375 -2 2.0625 C-1.34 1.381875 -0.68 0.70125 0 0 Z " fill="#55B4AD" transform="translate(515,414)"/>
<path d="M0 0 C0.66 0.33 1.32 0.66 2 1 C1.12499183 2.34709162 0.22409067 3.67738986 -0.6875 5 C-1.18636719 5.7425 -1.68523438 6.485 -2.19921875 7.25 C-4 9 -4 9 -6.70703125 9.25 C-7.46371094 9.1675 -8.22039063 9.085 -9 9 C-6 6 -3 3 0 0 Z " fill="#251919" transform="translate(696,727)"/>
<path d="M0 0 C0.66 0.66 1.32 1.32 2 2 C-4.14285714 8.71428571 -4.14285714 8.71428571 -9 9 C-6 6 -3 3 0 0 Z " fill="#25211D" transform="translate(568,639)"/>
<path d="M0 0 C0.66 0.33 1.32 0.66 2 1 C1 4 1 4 -0.84765625 4.94921875 C-1.57855469 5.19285156 -2.30945313 5.43648437 -3.0625 5.6875 C-4.16271484 6.06455078 -4.16271484 6.06455078 -5.28515625 6.44921875 C-5.85105469 6.63097656 -6.41695312 6.81273437 -7 7 C-7.66 6.34 -8.32 5.68 -9 5 C-7.54735962 4.1361871 -6.0876837 3.28419546 -4.625 2.4375 C-3.40683594 1.72400391 -3.40683594 1.72400391 -2.1640625 0.99609375 C-1.44992187 0.66738281 -0.73578125 0.33867188 0 0 Z " fill="#0F1A1C" transform="translate(546,613)"/>
<path d="M0 0 C-1.32 0.33 -2.64 0.66 -4 1 C-4.33 2.32 -4.66 3.64 -5 5 C-7.97 4.505 -7.97 4.505 -11 4 C-4.45754717 -1.33726415 -4.45754717 -1.33726415 0 0 Z " fill="#E2BB6D" transform="translate(749,566)"/>
<path d="M0 0 C1.64630328 0.14042877 3.29204179 0.28749329 4.9375 0.4375 C6.31228516 0.55931641 6.31228516 0.55931641 7.71484375 0.68359375 C10 1 10 1 11 2 C12.34747084 2.23075082 13.70377565 2.41153063 15.0625 2.5625 C16.361875 2.706875 17.66125 2.85125 19 3 C19 3.33 19 3.66 19 4 C12.02330843 4.39325819 6.48343811 3.63096039 0 1 C0 0.67 0 0.34 0 0 Z " fill="#2A8FAA" transform="translate(666,557)"/>
<path d="M0 0 C0.99 0.33 1.98 0.66 3 1 C0.36 3.64 -2.28 6.28 -5 9 C-5.66 8.67 -6.32 8.34 -7 8 C-4.69 5.36 -2.38 2.72 0 0 Z " fill="#212A34" transform="translate(490,465)"/>
<path d="M0 0 C2.62030687 4.86628419 4.3283194 9.4185702 4 15 C3.34 14.67 2.68 14.34 2 14 C1.2833793 11.68152126 0.61757973 9.34680297 0 7 C-0.33 6.34 -0.66 5.68 -1 5 C-0.72057545 3.32345271 -0.39171753 1.65391846 0 0 Z " fill="#4BAEC1" transform="translate(777,432)"/>
<path d="M0 0 C2.46278801 2.46278801 2.99771255 4.70676982 4 8 C4.66 8 5.32 8 6 8 C6 8.66 6 9.32 6 10 C4.125 9.8125 4.125 9.8125 2 9 C0.21715186 5.70173093 0 3.8225249 0 0 Z M-2 3 C-1.34 3.66 -0.68 4.32 0 5 C-0.99 5.495 -0.99 5.495 -2 6 C-2 5.01 -2 4.02 -2 3 Z " fill="#558B82" transform="translate(242,596)"/>
<path d="M0 0 C0.66 0.33 1.32 0.66 2 1 C1.34 2.65 0.68 4.3 0 6 C-1.65 6 -3.3 6 -5 6 C-2.25 1.125 -2.25 1.125 0 0 Z " fill="#55CDBE" transform="translate(520,411)"/>
<path d="M0 0 C0.66 0.33 1.32 0.66 2 1 C-2.625 6.75 -2.625 6.75 -6 9 C-6.99 8.67 -7.98 8.34 -9 8 C-6.03 5.36 -3.06 2.72 0 0 Z " fill="#D59776" transform="translate(642,692)"/>
<path d="M0 0 C0.33 0.99 0.66 1.98 1 3 C-2.97610294 8.68014706 -2.97610294 8.68014706 -6.17578125 9.6796875 C-7.07876953 9.83824219 -7.07876953 9.83824219 -8 10 C-7.59007812 9.52949219 -7.18015625 9.05898438 -6.7578125 8.57421875 C-6.21898437 7.95160156 -5.68015625 7.32898438 -5.125 6.6875 C-4.59132813 6.07261719 -4.05765625 5.45773437 -3.5078125 4.82421875 C-1.8359553 2.86501788 -1.8359553 2.86501788 0 0 Z " fill="#D6A477" transform="translate(676,657)"/>
<path d="M0 0 C1.98 0.66 3.96 1.32 6 2 C6 2.99 6 3.98 6 5 C6.99 5 7.98 5 9 5 C8.67 5.99 8.34 6.98 8 8 C6.85073734 7.04578192 5.70569459 6.08647955 4.5625 5.125 C3.92441406 4.59132813 3.28632813 4.05765625 2.62890625 3.5078125 C1 2 1 2 0 0 Z " fill="#16130C" transform="translate(414,640)"/>
<path d="M0 0 C4.44907205 1.48302402 6.74579392 5.08285501 9 9 C9 9.66 9 10.32 9 11 C8.34 11 7.68 11 7 11 C5.63636792 9.02053408 4.30581356 7.0180755 3 5 C2.4225 4.4225 1.845 3.845 1.25 3.25 C0.8375 2.8375 0.425 2.425 0 2 C0 1.34 0 0.68 0 0 Z " fill="#73C48A" transform="translate(614,511)"/>
<path d="M0 0 C0.33 0 0.66 0 1 0 C1.02696365 1.79158489 1.04637917 3.58328473 1.0625 5.375 C1.07410156 6.37273437 1.08570313 7.37046875 1.09765625 8.3984375 C1 11 1 11 0 13 C-0.99 13 -1.98 13 -3 13 C-2.690625 12.154375 -2.38125 11.30875 -2.0625 10.4375 C-0.98461179 6.9502146 -0.43418696 3.61822465 0 0 Z " fill="#383B37" transform="translate(450,479)"/>
<path d="M0 0 C0.66 0.66 1.32 1.32 2 2 C1.01 4.97 0.02 7.94 -1 11 C-1.66 11 -2.32 11 -3 11 C-2.69217504 9.35328588 -2.37860766 7.70764424 -2.0625 6.0625 C-1.88847656 5.14597656 -1.71445312 4.22945313 -1.53515625 3.28515625 C-1 1 -1 1 0 0 Z " fill="#78CD86" transform="translate(306,468)"/>
<path d="M0 0 C0.66 0.33 1.32 0.66 2 1 C-0.31 3.64 -2.62 6.28 -5 9 C-5.66 7.68 -6.32 6.36 -7 5 C-4.69 3.35 -2.38 1.7 0 0 Z " fill="#0B211B" transform="translate(395,362)"/>
<path d="M0 0 C0.66 0.33 1.32 0.66 2 1 C-6.261959 6.55580866 -6.261959 6.55580866 -11 7 C-8.21311345 3.90345939 -5.93489402 2.34614795 -2 1 C-1.34 0.67 -0.68 0.34 0 0 Z " fill="#74DAB7" transform="translate(483,319)"/>
<path d="M0 0 C0.598125 0.226875 1.19625 0.45375 1.8125 0.6875 C0.9875 1.450625 0.1625 2.21375 -0.6875 3 C-3.52805197 5.44184142 -3.52805197 5.44184142 -3.1875 8.6875 C-3.8475 8.6875 -4.5075 8.6875 -5.1875 8.6875 C-5.55003776 3.24943353 -5.55003776 3.24943353 -3.9375 0.75 C-2.1875 -0.3125 -2.1875 -0.3125 0 0 Z " fill="#EF718C" transform="translate(517.1875,765.3125)"/>
<path d="M0 0 C2.5 1.625 2.5 1.625 5 4 C5.5 7.0625 5.5 7.0625 5 10 C3.5 11.875 3.5 11.875 2 13 C2.3403125 11.39125 2.3403125 11.39125 2.6875 9.75 C3.36878965 6.08039785 3.36878965 6.08039785 1.5625 3.6875 C1.046875 3.130625 0.53125 2.57375 0 2 C0 1.34 0 0.68 0 0 Z " fill="#E8C7A2" transform="translate(502,648)"/>
<path d="M0 0 C0.33 0.66 0.66 1.32 1 2 C-0.61000397 5.13950774 -2.38499232 7.63404067 -5 10 C-5.66 9.67 -6.32 9.34 -7 9 C-4.69 6.03 -2.38 3.06 0 0 Z " fill="#211715" transform="translate(732,688)"/>
<path d="M0 0 C0 0.66 0 1.32 0 2 C-5.17578125 5.22265625 -5.17578125 5.22265625 -7 6 C-7.99 5.67 -8.98 5.34 -10 5 C-8.71186658 4.16121545 -7.41936744 3.32913217 -6.125 2.5 C-5.40570312 2.0359375 -4.68640625 1.571875 -3.9453125 1.09375 C-2 0 -2 0 0 0 Z " fill="#D9B88E" transform="translate(568,611)"/>
<path d="M0 0 C0.33 0 0.66 0 1 0 C1 1.65 1 3.3 1 5 C1.66 5 2.32 5 3 5 C3.625 7.875 3.625 7.875 4 11 C3.34 11.66 2.68 12.32 2 13 C0.54815522 8.46298506 -0.23509196 4.81938524 0 0 Z " fill="#76C483" transform="translate(234,566)"/>
<path d="M0 0 C0.66 0.66 1.32 1.32 2 2 C1.7578125 4.3828125 1.7578125 4.3828125 1.125 7.125 C0.92132813 8.03507812 0.71765625 8.94515625 0.5078125 9.8828125 C0.34023438 10.58148438 0.17265625 11.28015625 0 12 C-0.33 12 -0.66 12 -1 12 C-1.02698189 10.37509046 -1.04638757 8.75005367 -1.0625 7.125 C-1.07410156 6.22007812 -1.08570313 5.31515625 -1.09765625 4.3828125 C-1 2 -1 2 0 0 Z " fill="#6FBA7B" transform="translate(301,481)"/>
<path d="M0 0 C0.66 0.33 1.32 0.66 2 1 C-4.14285714 7.71428571 -4.14285714 7.71428571 -9 8 C-6.14723863 5.06799526 -3.34920216 2.35684596 0 0 Z " fill="#0C2D1F" transform="translate(448,427)"/>
<path d="M0 0 C0.66 1.65 1.32 3.3 2 5 C0.35 5 -1.3 5 -3 5 C-3.66 3.68 -4.32 2.36 -5 1 C-3 0 -3 0 0 0 Z " fill="#70E4A8" transform="translate(389,273)"/>
<path d="M0 0 C0.99 0.33 1.98 0.66 3 1 C3.70211894 2.65204456 4.36971413 4.31923769 5 6 C5.66 6.33 6.32 6.66 7 7 C7 7.66 7 8.32 7 9 C6.01 9 5.02 9 4 9 C3.67 7.35 3.34 5.7 3 4 C2.34 4 1.68 4 1 4 C0.67 2.68 0.34 1.36 0 0 Z " fill="#63A180" transform="translate(249,608)"/>
<path d="M0 0 C0 3 0 3 -2.5 5.6875 C-3.325 6.450625 -4.15 7.21375 -5 8 C-5.33 7.01 -5.66 6.02 -6 5 C-4.21653709 1.96811304 -3.40424844 1.13474948 0 0 Z " fill="#FAC768" transform="translate(741,569)"/>
<path d="M0 0 C1.65 0 3.3 0 5 0 C3.12050295 3.57104439 1.82946843 5.54744301 -2 7 C-1.67 6.030625 -1.34 5.06125 -1 4.0625 C0.05173363 1.37850426 0.05173363 1.37850426 0 0 Z " fill="#618B8E" transform="translate(540,475)"/>
<path d="M0 0 C0.66 0.99 1.32 1.98 2 3 C1.1875 4.9375 1.1875 4.9375 0 7 C-0.99 7.33 -1.98 7.66 -3 8 C-1.125 2.25 -1.125 2.25 0 0 Z " fill="#0D251C" transform="translate(316,451)"/>
<path d="M0 0 C0.66 1.32 1.32 2.64 2 4 C0.71034824 5.37562854 -0.62689293 6.70766393 -2 8 C-2.66 8 -3.32 8 -4 8 C-2.87548273 5.0280615 -1.77706209 2.66559313 0 0 Z " fill="#6CC482" transform="translate(265,387)"/>
<path d="M0 0 C0.33 0.66 0.66 1.32 1 2 C0.34 2 -0.32 2 -1 2 C-1.66 4.31 -2.32 6.62 -3 9 C-3.33 8.01 -3.66 7.02 -4 6 C-4.66 5.34 -5.32 4.68 -6 4 C-4.02 2.68 -2.04 1.36 0 0 Z " fill="#64D297" transform="translate(351,294)"/>
<path d="M0 0 C0 0.66 0 1.32 0 2 C-0.66 2 -1.32 2 -2 2 C-2 2.66 -2 3.32 -2 4 C-3.65 4.66 -5.3 5.32 -7 6 C-7.33 5.01 -7.66 4.02 -8 3 C-2.25 0 -2.25 0 0 0 Z " fill="#68D09E" transform="translate(396,269)"/>
<path d="M0 0 C0.6875 1.75 0.6875 1.75 1 4 C-0.3125 6.25 -0.3125 6.25 -2 8 C-2.66 8 -3.32 8 -4 8 C-4.33 7.01 -4.66 6.02 -5 5 C-3.35 4.34 -1.7 3.68 0 3 C0 2.01 0 1.02 0 0 Z " fill="#EEB77B" transform="translate(739,674)"/>
<path d="M0 0 C3.36720387 1.39332574 4.9859524 2.9789286 7 6 C4 6 4 6 1.8125 4.125 C0 2 0 2 0 0 Z " fill="#E6B961" transform="translate(416,644)"/>
<path d="M0 0 C0.66 0 1.32 0 2 0 C2 0.66 2 1.32 2 2 C2.61875 2.268125 3.2375 2.53625 3.875 2.8125 C6 4 6 4 8 7 C7.01 7 6.02 7 5 7 C0 1.53488372 0 1.53488372 0 0 Z " fill="#282212" transform="translate(362,592)"/>
<path d="M0 0 C1.32 0.66 2.64 1.32 4 2 C2.35 3.98 0.7 5.96 -1 8 C-1 5.16032769 -0.59732819 2.76264289 0 0 Z " fill="#1A262B" transform="translate(476,482)"/>
<path d="M0 0 C1.32 0 2.64 0 4 0 C4.33 1.32 4.66 2.64 5 4 C4.01 4.33 3.02 4.66 2 5 C1.01 4.01 0.02 3.02 -1 2 C-0.67 1.34 -0.34 0.68 0 0 Z " fill="#2F9DBF" transform="translate(628,395)"/>
<path d="M0 0 C0.33 1.32 0.66 2.64 1 4 C-2.75 7 -2.75 7 -5 7 C-3.70700306 4.11562221 -2.34058637 2.12780579 0 0 Z " fill="#66D08D" transform="translate(300,339)"/>
<path d="M0 0 C0.99 0.33 1.98 0.66 3 1 C1.35 2.98 -0.3 4.96 -2 7 C-2.33 6.01 -2.66 5.02 -3 4 C-2.67 3.34 -2.34 2.68 -2 2 C-1.34 2 -0.68 2 0 2 C0 1.34 0 0.68 0 0 Z " fill="#D69D84" transform="translate(586,712)"/>
<path d="M0 0 C3.36720387 1.39332574 4.9859524 2.9789286 7 6 C4 6 4 6 1.8125 4.125 C0 2 0 2 0 0 Z " fill="#E2B660" transform="translate(423,651)"/>
<path d="M0 0 C0.66 1.32 1.32 2.64 2 4 C0.625 6 0.625 6 -1 8 C-1.66 8 -2.32 8 -3 8 C-1.125 2.25 -1.125 2.25 0 0 Z " fill="#221D19" transform="translate(758,646)"/>
<path d="M0 0 C0.99 0 1.98 0 3 0 C2.67 2.31 2.34 4.62 2 7 C1.01 6.67 0.02 6.34 -1 6 C-0.67 4.02 -0.34 2.04 0 0 Z " fill="#181612" transform="translate(381,605)"/>
<path d="M0 0 C0.7734375 0.495 0.7734375 0.495 1.5625 1 C4.78026512 2.32010877 7.5570528 2.13242105 11 2 C10.67 2.66 10.34 3.32 10 4 C7.03 4 4.06 4 1 4 C0.67 2.68 0.34 1.36 0 0 Z " fill="#214530" transform="translate(592,586)"/>
<path d="M0 0 C5.94 0.99 5.94 0.99 12 2 C12 2.33 12 2.66 12 3 C7.31034294 4.11658501 4.46236469 3.80619523 0 2 C0 1.34 0 0.68 0 0 Z " fill="#132831" transform="translate(562,507)"/>
<path d="M0 0 C0.99 0.33 1.98 0.66 3 1 C0.6875 3.5 0.6875 3.5 -2 6 C-2.99 6 -3.98 6 -5 6 C-2.25 1.125 -2.25 1.125 0 0 Z " fill="#09281C" transform="translate(594,503)"/>
<path d="M0 0 C0.99 0.33 1.98 0.66 3 1 C1.35 2.65 -0.3 4.3 -2 6 C-2.66 5.34 -3.32 4.68 -4 4 C-2.68 3.34 -1.36 2.68 0 2 C0 1.34 0 0.68 0 0 Z " fill="#64CA8B" transform="translate(312,326)"/>
<path d="M0 0 C0.66 0.33 1.32 0.66 2 1 C0.35 3.64 -1.3 6.28 -3 9 C-3.33 7.68 -3.66 6.36 -4 5 C-3.34 5 -2.68 5 -2 5 C-1.7834375 4.0409375 -1.7834375 4.0409375 -1.5625 3.0625 C-1 1 -1 1 0 0 Z " fill="#D6A974" transform="translate(744,668)"/>
<path d="M0 0 C0.33 0.99 0.66 1.98 1 3 C-0.65 4.32 -2.3 5.64 -4 7 C-4.66 6.67 -5.32 6.34 -6 6 C-4.02 4.02 -2.04 2.04 0 0 Z " fill="#292B29" transform="translate(645,654)"/>
<path d="M0 0 C1.32 1.65 2.64 3.3 4 5 C3.01 5.66 2.02 6.32 1 7 C0.67 6.34 0.34 5.68 0 5 C-2.01669827 3.86649466 -2.01669827 3.86649466 -4 3 C-3.01 2.67 -2.02 2.34 -1 2 C-0.67 1.34 -0.34 0.68 0 0 Z " fill="#201B28" transform="translate(459,617)"/>
<path d="M0 0 C2.475 0.495 2.475 0.495 5 1 C4.34 3.64 3.68 6.28 3 9 C2.67 9 2.34 9 2 9 C1.34 6.03 0.68 3.06 0 0 Z " fill="#23212C" transform="translate(458,608)"/>
<path d="M0 0 C0.33 0.66 0.66 1.32 1 2 C-0.32 3.65 -1.64 5.3 -3 7 C-3.99 6.67 -4.98 6.34 -6 6 C-4.02 4.02 -2.04 2.04 0 0 Z " fill="#D3C1A8" transform="translate(396,503)"/>
<path d="M0 0 C1.485 0.99 1.485 0.99 3 2 C2.67 4.64 2.34 7.28 2 10 C-0.09350689 6.5980513 -0.17942163 3.94727588 0 0 Z " fill="#5FB974" transform="translate(384,415)"/>
<path d="M0 0 C0.33 0 0.66 0 1 0 C1.08131463 1.43655854 1.13933559 2.8744483 1.1875 4.3125 C1.23970703 5.51326172 1.23970703 5.51326172 1.29296875 6.73828125 C0.93801608 9.47851584 0.10633718 10.29171079 -2 12 C-1.855625 11.319375 -1.71125 10.63875 -1.5625 9.9375 C-0.93054091 6.63726918 -0.45686059 3.32855574 0 0 Z " fill="#78CBA5" transform="translate(550,368)"/>
<path d="M0 0 C2 1 2 1 2 1 Z " fill="#081915" transform="translate(387,234)"/>
<path d="" fill="#071413" transform="translate(0,0)"/>
<path d="" fill="#071412" transform="translate(0,0)"/>
<path d="" fill="#1D2223" transform="translate(0,0)"/>
<path d="" fill="#355353" transform="translate(0,0)"/>
<path d="" fill="#2C4346" transform="translate(0,0)"/>
<path d="" fill="#061A13" transform="translate(0,0)"/>
<path d="" fill="#071719" transform="translate(0,0)"/>
<path d="" fill="#08120F" transform="translate(0,0)"/>
<path d="" fill="#081613" transform="translate(0,0)"/>
<path d="" fill="#091B16" transform="translate(0,0)"/>
<path d="" fill="#0C1F1A" transform="translate(0,0)"/>
<path d="" fill="#071614" transform="translate(0,0)"/>
</svg>
